<svg xmlns="http://www.w3.org/2000/svg" width="81.512" height="77.765" viewBox="0 0 81.512 77.765">
  <g id="icono-manos" opacity="0.483">
    <path id="Trazado_2808" data-name="Trazado 2808" d="M952.118,590.834l-4.612,4.612a2.435,2.435,0,0,1-3.443,0l-3.052-3.051-1.6-1.6a3.375,3.375,0,0,1,0-4.774h0a3.375,3.375,0,0,1,4.773,0l1.042,1.042a.784.784,0,0,0,1.108,0l1.007-1.007a3.375,3.375,0,0,1,4.773,0h0A3.375,3.375,0,0,1,952.118,590.834Z" transform="translate(-903.439 -585.037)" fill="#d4e5e8"/>
    <path id="Trazado_2809" data-name="Trazado 2809" d="M1143.752,672.238l-2.466,2.467a2.433,2.433,0,0,1-3.44,0h0a2.433,2.433,0,0,1,0-3.44l2.466-2.467a2.432,2.432,0,0,1,3.44,0h0A2.433,2.433,0,0,1,1143.752,672.238Z" transform="translate(-1083.528 -660.304)" fill="#d4e5e8"/>
    <path id="Trazado_2810" data-name="Trazado 2810" d="M819.237,672.238,821.7,674.7a2.433,2.433,0,0,0,3.44,0h0a2.432,2.432,0,0,0,0-3.44l-2.466-2.467a2.433,2.433,0,0,0-3.44,0h0A2.433,2.433,0,0,0,819.237,672.238Z" transform="translate(-794.773 -660.304)" fill="#d4e5e8"/>
    <path id="Trazado_2811" data-name="Trazado 2811" d="M624.328,810.9l.3-.321,0,0,.01-.011c.083-.086.157-.167.217-.235l.015-.016,19.89-21.56a6.8,6.8,0,0,0,.459-8.657,6.9,6.9,0,0,0-.661-.766c-.066-.066-.137-.134-.218-.208a6.829,6.829,0,0,0-1.847-1.209,7.4,7.4,0,0,0-3.586-11.357,7.538,7.538,0,0,0-12.267-8.525l-1.759,1.9a2.342,2.342,0,0,0,3.44,3.18l1.762-1.906.007-.008a2.854,2.854,0,0,1,4.21,3.853l-3.208,3.468-.033.034-1.619,1.752-.092.1c-.028.03-.054.06-.08.091l-.011.014c-.021.026-.042.052-.062.079l-.017.024c-.018.023-.035.047-.051.071l-.019.029c-.015.023-.03.045-.044.068l-.019.032c-.013.022-.026.045-.038.067l-.018.035c-.012.022-.023.045-.034.067l-.017.036-.03.067-.015.039c-.009.022-.018.044-.026.067l-.014.04c-.008.022-.015.045-.022.067l-.012.042c-.006.022-.013.044-.019.066s-.007.029-.01.043-.01.044-.015.065-.006.03-.009.045-.008.043-.011.065,0,.031-.007.047-.006.042-.008.063,0,.033,0,.049,0,.041-.005.061,0,.034,0,.051,0,.04,0,.059,0,.036,0,.053,0,.038,0,.057,0,.037,0,.056,0,.036,0,.054,0,.039.005.058,0,.034.006.051.005.04.008.06l.008.048c0,.021.007.042.012.062l.009.046c0,.021.01.043.015.064l.011.043.019.066.012.039c.007.023.015.046.023.068l.013.037c.009.023.017.046.027.068l.015.035.031.069.016.032c.011.023.023.046.035.069l.017.031q.018.034.038.068l.018.03.042.066.02.029.045.064.023.03.047.061.027.032.048.056.033.035.047.049.008.008.067.064a2.33,2.33,0,0,0,1.234.6h0a2.339,2.339,0,0,0,2.074-.725l1.758-1.9a2.714,2.714,0,0,1,3.969,3.7l-5.707,6.211c-.024.026-.047.053-.07.079l-.006.007q-.076.092-.142.188l-.024.037-.039.06-.031.054-.026.045-.032.063-.019.038c-.011.023-.021.046-.031.07l-.015.033c-.01.025-.02.05-.029.075l-.011.029c-.01.026-.018.053-.027.079l-.009.026c-.009.027-.016.054-.024.081,0,.009,0,.017-.007.025-.008.028-.014.056-.02.084l-.005.023c-.006.029-.011.057-.016.086,0,.007,0,.015,0,.022,0,.029-.009.058-.012.087l0,.023c0,.029-.006.058-.008.087,0,.008,0,.016,0,.023,0,.029,0,.058,0,.087,0,.008,0,.016,0,.024,0,.028,0,.057,0,.085,0,.009,0,.017,0,.025,0,.028,0,.056,0,.083,0,.009,0,.018,0,.027,0,.027,0,.054.007.081l0,.03c0,.026.007.052.011.078s0,.022.005.033.009.049.014.074l.008.037c.005.023.01.046.017.069s.007.027.01.04.012.044.019.065l.014.043c.006.02.013.041.021.061l.017.047.022.056.021.051.023.051c.008.018.017.036.026.054l.023.046.031.056.024.042.035.058.025.038.04.059.025.036c.014.02.029.039.044.058l.027.035.047.055.021.026.008.009.047.05.035.037.01.01.053.051.015.015,0,0,0,0,.031.027.058.051.031.024.063.049.031.022.065.046.03.019.069.044.03.017.071.04.032.016.072.036.031.014c.025.011.049.023.074.033l.031.012.075.029.034.011.075.025.033.009.077.021.033.007.078.018.034.006.077.013.034,0,.078.01.032,0,.08.006h.031l.081,0h.113l.028,0,.085-.006.025,0,.087-.01.023,0,.088-.014.021,0,.089-.019.02-.005.09-.023.018-.005.09-.029.018-.006.089-.033.015-.006c.03-.012.06-.025.09-.038l.013-.006.09-.044.013-.007c.029-.016.059-.031.088-.048l.013-.008.086-.052.013-.009c.028-.018.056-.037.083-.057l.012-.009.081-.062.011-.009c.027-.022.053-.044.079-.067l.009-.009c.026-.024.053-.048.078-.073l.008-.008c.024-.024.049-.049.072-.074l1.912-2.07a2.165,2.165,0,0,1,.313-.281,2.134,2.134,0,0,1,2.533.014c.056.042.11.087.162.135.024.022.048.044.072.068a2.124,2.124,0,0,1,.067,2.939l-19.9,21.575-.013.014,0,0-.141.153,0,0-.012.013a16.911,16.911,0,0,1-5.648,3.745,16.36,16.36,0,0,1-7.185,1.2,17,17,0,0,0,2.025-1.879l18.194-19.849a6.717,6.717,0,0,0-.47-9.472,6.791,6.791,0,0,0-1.791-1.182,7.343,7.343,0,0,0-3.935-11.211,7.211,7.211,0,0,0,.389-2.763,7.387,7.387,0,0,0-7.609-6.975,7.192,7.192,0,0,0-3.091.807,7.332,7.332,0,0,0-12.066-2.174l-10.8,11.372a6.961,6.961,0,0,0-2.449-4.93,6.1,6.1,0,0,0-4.648-1.379,6.34,6.34,0,0,0-4.317,2.468c-6.921,9.169-9.154,12.091-9.176,12.12l-.024.032a21.268,21.268,0,0,0-1.534,20.923,29.5,29.5,0,0,0,6.029,8.38,42.733,42.733,0,0,0,3.667,3.254,32.821,32.821,0,0,0,13.556,6.792,21.466,21.466,0,0,0,10.755-.452q.535-.164,1.042-.35a23.19,23.19,0,0,0,8.125,1.159,21.078,21.078,0,0,0,7.088-1.554A21.937,21.937,0,0,0,624,811.2,2.369,2.369,0,0,0,624.328,810.9Zm-33.178,1.1a32.622,32.622,0,0,1-19.741-15.643,16.613,16.613,0,0,1,.989-16.3c.247-.323,2.6-3.409,9.172-12.114a1.634,1.634,0,0,1,1.112-.637,1.467,1.467,0,0,1,1.112.323,2.388,2.388,0,0,1,.79,1.815c.067,1.25-.358,4.7-5.579,10.3l-.539.568-.031.034-.043.048-.033.04-.041.051-.031.041-.039.053-.028.042-.036.054-.027.044-.032.054c-.009.015-.017.031-.025.047s-.02.036-.029.054l-.023.049-.025.054c-.008.017-.015.034-.022.051s-.015.035-.022.053l-.019.054c-.006.017-.013.034-.019.052s-.011.037-.017.056-.011.034-.015.051-.01.039-.015.058-.009.033-.013.05-.008.039-.012.059-.007.033-.01.05-.007.04-.01.06-.005.033-.008.049,0,.041-.007.062,0,.032-.005.049,0,.042,0,.063,0,.032,0,.048,0,.041,0,.062,0,.033,0,.049,0,.041,0,.061,0,.033,0,.05,0,.041,0,.06,0,.034,0,.05.005.04.008.06,0,.034.006.05.007.039.01.059.006.034.009.05.009.039.013.059.007.033.012.05.01.038.016.057.009.034.014.05.013.039.019.058.01.032.016.048.015.04.023.06.011.03.017.045.018.041.027.061l.018.042.032.064.018.037.038.068.018.031c.015.025.031.05.047.074l.015.023c.018.026.036.052.054.078l.012.017c.021.029.043.057.066.085l.006.007a2.29,2.29,0,0,0,.158.175h0l.029.029,0,0,.011.011.041.037.04.036.049.041.043.035.05.037.045.033.051.034.047.03.052.032.047.028.054.029.048.025.056.027.048.022.058.024.048.019.06.021.047.017.061.018.048.014.062.015.048.012.062.012.049.009.062.009.05.007.062.006.05,0,.061,0,.052,0h.112l.058,0,.054,0,.057-.005.055-.005.056-.008.055-.008.055-.01.056-.011.054-.013.055-.014.053-.016.055-.016.053-.018.054-.019.053-.021.053-.021.053-.024.051-.024.053-.027.049-.026.053-.031.046-.027.053-.035.044-.029.053-.039.041-.03.053-.042.039-.032.051-.045.038-.034.049-.049.031-.03.01-.011,0,0,.05-.053q.229-.239.452-.476l21.093-22.2.028-.031a2.643,2.643,0,0,1,4.08,3.321l-10.779,11.76a2.361,2.361,0,0,0-.19.237l-1.776,1.938a2.343,2.343,0,0,0,3.454,3.166l12.551-13.694c.115-.126.223-.256.328-.388l2.447-2.67a2.484,2.484,0,0,1,1.763-.8,2.7,2.7,0,0,1,2.771,2.54,2.484,2.484,0,0,1-.647,1.826l-2.374,2.589c-.035.037-.072.073-.107.111l-13.361,14.577a2.343,2.343,0,0,0,.069,3.238l.075.071a2.343,2.343,0,0,0,3.31-.144l3.2-3.488c.032-.031.062-.062.093-.1l10.167-11.092a2.64,2.64,0,0,1,3.791,3.661l-3.673,4.007,0,0-8.877,9.685a2.346,2.346,0,0,0-.171,2.956q.069.094.147.183.039.044.081.087c.028.028.057.056.087.083a2.284,2.284,0,0,0,.185.153,2.343,2.343,0,0,0,3.125-.3l8.879-9.687a2.063,2.063,0,0,1,3.038,2.788l-18.211,19.867c-.02.022-.028.03-.046.051a16.8,16.8,0,0,1-15.76,4.691Z" transform="translate(-565.043 -739.337)" fill="#d4e5e8"/>
  </g>
</svg>
