<svg xmlns="http://www.w3.org/2000/svg" width="164.671" height="34.691" viewBox="0 0 164.671 34.691">
  <g id="logo-novaventa" transform="translate(-36.999 -25)">
    <path id="Trazado_2625" data-name="Trazado 2625" d="M162.667,31.985A1.789,1.789,0,0,0,160.45,33.4a45.322,45.322,0,0,1-3.668,9.669c-.344.593-1.146,2.393-2.823,2.393s-2.48-1.8-2.825-2.393a45.317,45.317,0,0,1-3.666-9.669,1.79,1.79,0,0,0-2.218-1.417c-1.382.388-1.118,1.86-.94,2.488a55.6,55.6,0,0,0,3.049,8.612c1.258,2.613,2.893,5.624,6.6,5.624s5.338-3.011,6.592-5.624a55.431,55.431,0,0,0,3.052-8.612c.177-.629.44-2.1-.942-2.488" transform="translate(-29.863 5.657)" fill="#0057a1"/>
    <path id="Trazado_2626" data-name="Trazado 2626" d="M52.245,32.059a8.289,8.289,0,1,0,8.289,8.289,8.289,8.289,0,0,0-8.289-8.289m0,13.1a4.808,4.808,0,1,1,4.808-4.808,4.808,4.808,0,0,1-4.808,4.808" transform="translate(14.203 5.591)" fill="#0057a1"/>
    <path id="Trazado_2627" data-name="Trazado 2627" d="M35.781,53.6h-.04c-6.389-.018-10.841-3-13.608-9.112a36.251,36.251,0,0,1-1.5-4.179c-1.386-4.418-2.214-6.2-4.866-6.037-3.718.229-5.815,10.306-6.249,15.15a1.668,1.668,0,1,1-3.322-.3,52.672,52.672,0,0,1,1.577-8.49c1.751-6.221,4.371-9.483,7.789-9.694,5.52-.346,7.039,4.489,8.254,8.369a34.405,34.405,0,0,0,1.355,3.8c2.2,4.864,5.565,7.137,10.58,7.151h.03a10.3,10.3,0,0,0,6.84-2.635A1.668,1.668,0,1,1,45,49.972,13.7,13.7,0,0,1,35.781,53.6" transform="translate(30.811 6.09)" fill="#0057a1"/>
    <path id="Trazado_2628" data-name="Trazado 2628" d="M103.426,22.155l-.039,0c-6.353.689-10.468,4.121-12.577,10.491a36.824,36.824,0,0,0-1.053,4.314c-.913,4.539-1.55,6.394-4.2,6.515-3.72.162-6.865-9.638-7.806-14.41a1.668,1.668,0,0,0-3.274.645,52.724,52.724,0,0,0,2.463,8.277c2.393,6,5.342,8.97,8.763,8.823,5.526-.234,6.528-5.2,7.33-9.191a33.877,33.877,0,0,1,.95-3.923c1.676-5.07,4.781-7.682,9.768-8.224l.03,0a10.292,10.292,0,0,1,7.077,1.9,1.669,1.669,0,0,0,2.12-2.578,13.706,13.706,0,0,0-9.548-2.642" transform="translate(0.798 9.979)" fill="#0057a1"/>
    <path id="Trazado_2629" data-name="Trazado 2629" d="M219.577,32.047a7.805,7.805,0,0,1,3.025.6,7.9,7.9,0,0,1,2.53,1.664,8.206,8.206,0,0,1,1.741,2.54,7.767,7.767,0,0,1,.658,3.191v6.934a1.6,1.6,0,0,1-.476,1.166,1.666,1.666,0,0,1-1.133.515,1.6,1.6,0,0,1-1.135-.447,1.486,1.486,0,0,1-.476-1.132V40.354a5.072,5.072,0,0,0-.362-1.922,4.9,4.9,0,0,0-1-1.561,4.814,4.814,0,0,0-1.512-1.064,4.538,4.538,0,0,0-1.888-.395,4.48,4.48,0,0,0-1.791.361,4.6,4.6,0,0,0-1.48,1.012,5.035,5.035,0,0,0-1.019,1.51,4.576,4.576,0,0,0-.377,1.853v6.83a1.622,1.622,0,0,1-.493,1.184,1.572,1.572,0,0,1-1.15.5,1.654,1.654,0,0,1-1.151-.447,1.46,1.46,0,0,1-.493-1.132V40.354a8.87,8.87,0,0,1,2.333-5.869,7.608,7.608,0,0,1,5.652-2.438" transform="translate(-59.511 5.597)" fill="#0057a1"/>
    <path id="Trazado_2630" data-name="Trazado 2630" d="M244.992,22.741a1.53,1.53,0,0,1,1.192.529,2.167,2.167,0,0,1,.538,1.312v3.066h9.123a1.447,1.447,0,0,1,1.141.529,1.806,1.806,0,0,1-.033,2.436,1.455,1.455,0,0,1-1.108.546h-9.123v4.976a5.058,5.058,0,0,0,.359,1.891,5,5,0,0,0,1,1.585,4.85,4.85,0,0,0,1.5,1.091,4.245,4.245,0,0,0,1.843.41,4.82,4.82,0,0,0,1.876-.324,4.275,4.275,0,0,0,1.354-.9h-.033a1.724,1.724,0,0,1,2.415.034,1.588,1.588,0,0,1,.456,1.193,2.128,2.128,0,0,1-.08.562,1.036,1.036,0,0,1-.31.494h.032a8.367,8.367,0,0,1-2.5,1.772,7.078,7.078,0,0,1-2.955.613,8.685,8.685,0,0,1-3.213-.6,7.749,7.749,0,0,1-2.644-1.7,8.464,8.464,0,0,1-1.81-2.658,8.818,8.818,0,0,1-.719-3.459V24.582a1.952,1.952,0,0,1,.474-1.262,1.507,1.507,0,0,1,1.223-.579" transform="translate(-73.453 9.689)" fill="#0057a1"/>
    <path id="Trazado_2631" data-name="Trazado 2631" d="M195.154,37.269a9.029,9.029,0,0,0-1.75-2.639,8.666,8.666,0,0,0-2.526-1.828,6.924,6.924,0,0,0-6.041,0,8.975,8.975,0,0,0-2.529,1.828,8.45,8.45,0,0,0-1.733,2.639,8.024,8.024,0,0,0-.631,3.129,8.328,8.328,0,0,0,.631,3.215,8.737,8.737,0,0,0,1.718,2.672,8.034,8.034,0,0,0,2.527,1.81,6.505,6.505,0,0,0,3.029.591c.114,0,.223-.017.333-.027a6.553,6.553,0,0,0,2.488-.56A7.839,7.839,0,0,0,193,46.441l.082-.1a.9.9,0,0,0,.178-.36,1.977,1.977,0,0,0,.076-.526,1.482,1.482,0,0,0-.427-1.115,1.61,1.61,0,0,0-2.259-.032l-.026.034a3.934,3.934,0,0,1-.507.424,4.026,4.026,0,0,1-1.074.405,5.42,5.42,0,0,1-1.165.17,4.8,4.8,0,0,1-2.479-.745,6.206,6.206,0,0,1-2.186-2.5H194.1a1.5,1.5,0,0,0,1.23-.491,1.714,1.714,0,0,0,.486-1.2,7.685,7.685,0,0,0-.665-3.129m-11.971,1.4a.191.191,0,0,1,.066-.135,6.3,6.3,0,0,1,1.894-2.166,4.639,4.639,0,0,1,5.411-.016,6.854,6.854,0,0,1,1.992,2.216v.067c0,.023.009.034.031.034Z" transform="translate(-45.595 5.569)" fill="#0057a1"/>
    <path id="Trazado_2632" data-name="Trazado 2632" d="M122.366,31.98a8.042,8.042,0,0,1,2.913.9,8.228,8.228,0,0,1,2.345,1.844,8.742,8.742,0,0,1,1.55,2.551,8.093,8.093,0,0,1,.569,3.016V46.94a1.592,1.592,0,0,1-.517,1.189,1.64,1.64,0,0,1-1.171.5,4.478,4.478,0,0,1-.535-.035,1.493,1.493,0,0,1-.569-.189,1.77,1.77,0,0,1-.5-.431,1.317,1.317,0,0,1-.257-.758c-.115.045-.322.149-.621.31s-.517.276-.654.344a7.761,7.761,0,0,1-.792.31q-.415.139-.862.276a9.4,9.4,0,0,1-1.86.173,7.975,7.975,0,0,1-4.621-1.4,8.62,8.62,0,0,1-3.033-3.6,8.176,8.176,0,0,1-.533-1.6,7.95,7.95,0,0,1-.189-1.741,7.722,7.722,0,0,1,.189-1.723,9.211,9.211,0,0,1,.533-1.62,8.473,8.473,0,0,1,3.033-3.619,8.047,8.047,0,0,1,4.621-1.378h.481a4.145,4.145,0,0,1,.482.034m-1,13.272a4.929,4.929,0,0,0,1.914-.38,4.827,4.827,0,0,0,1.585-1.051,5.107,5.107,0,0,0,1.068-1.569,4.779,4.779,0,0,0,.4-1.965,4.65,4.65,0,0,0-.4-1.878,4.929,4.929,0,0,0-1.085-1.586,5.636,5.636,0,0,0-1.586-1.085,4.449,4.449,0,0,0-1.9-.415,4.512,4.512,0,0,0-1.878.4,5.265,5.265,0,0,0-1.568,1.085,5.194,5.194,0,0,0-1.087,1.586,4.654,4.654,0,0,0-.4,1.9,4.542,4.542,0,0,0,.414,1.931,5.066,5.066,0,0,0,1.122,1.569,5.62,5.62,0,0,0,1.583,1.068,4.355,4.355,0,0,0,1.81.4" transform="translate(-16.169 5.641)" fill="#0057a1"/>
    <path id="Trazado_2633" data-name="Trazado 2633" d="M279.608,31.98a8.054,8.054,0,0,1,2.914.9,8.244,8.244,0,0,1,2.342,1.844,8.712,8.712,0,0,1,1.551,2.551,8.126,8.126,0,0,1,.568,3.016V46.94a1.594,1.594,0,0,1-.517,1.189,1.639,1.639,0,0,1-1.171.5,4.54,4.54,0,0,1-.536-.035,1.49,1.49,0,0,1-.566-.189,1.746,1.746,0,0,1-.5-.431,1.313,1.313,0,0,1-.257-.758,6.937,6.937,0,0,0-.622.31c-.3.161-.515.276-.655.344a7.547,7.547,0,0,1-.791.31c-.275.092-.565.184-.862.276a9.412,9.412,0,0,1-1.861.173,7.969,7.969,0,0,1-4.619-1.4,8.613,8.613,0,0,1-3.034-3.6,8.288,8.288,0,0,1-.534-1.6,7.949,7.949,0,0,1-.188-1.741,7.722,7.722,0,0,1,.188-1.723,9.352,9.352,0,0,1,.534-1.62,8.466,8.466,0,0,1,3.034-3.619,8.041,8.041,0,0,1,4.619-1.378h.482a4.146,4.146,0,0,1,.483.034m-1,13.272a4.923,4.923,0,0,0,1.912-.38,4.819,4.819,0,0,0,1.586-1.051,5.114,5.114,0,0,0,1.07-1.569,4.815,4.815,0,0,0,.395-1.965,4.685,4.685,0,0,0-.395-1.878,4.91,4.91,0,0,0-1.088-1.586,5.633,5.633,0,0,0-1.585-1.085,4.587,4.587,0,0,0-3.772-.018,5.267,5.267,0,0,0-1.57,1.085,5.175,5.175,0,0,0-1.087,1.586,4.645,4.645,0,0,0-.4,1.9,4.55,4.55,0,0,0,.413,1.931,5.065,5.065,0,0,0,1.121,1.569,5.655,5.655,0,0,0,1.584,1.068,4.354,4.354,0,0,0,1.811.4" transform="translate(-85.313 5.641)" fill="#0057a1"/>
    <path id="Trazado_2634" data-name="Trazado 2634" d="M84.319,28.286a4.91,4.91,0,0,0,1.937,1.5,12.155,12.155,0,0,0-.885,4.171c1.334-.875,1.719-2.221,2.606-3.318.9.637,1.588,1.7,2.585,2.137.235-.8-.861-2.164-1.385-2.829.623-.62,1.929-.9,2.485-1.556-.545-.633-1.751.073-2.748.354-.369-.225.375-.81-.049-1.417-.882.278-1.108.88-1.541,1.381-.972-.056-2.206-.735-3.006-.418" transform="translate(-3.546 7.674)" fill="#68aed1"/>
    <path id="Trazado_2635" data-name="Trazado 2635" d="M86.47,18.5a3.613,3.613,0,0,0,1.076,1.426,8.88,8.88,0,0,0-1.425,2.764c1.109-.359,1.639-1.231,2.475-1.834.51.621.791,1.5,1.409,2,.317-.522-.192-1.689-.431-2.258.558-.317,1.532-.264,2.049-.618-.262-.551-1.248-.285-2-.279-.215-.23.419-.5.239-1.007-.674.025-.95.406-1.35.675-.675-.226-1.412-.942-2.038-.872" transform="translate(-4.338 11.555)" fill="#0057a1"/>
    <path id="Trazado_2636" data-name="Trazado 2636" d="M103.283,9.48a2.315,2.315,0,0,1-.485,3.029s2.852-.234,3.795.972c0,0-.441,1.444-3.77.856,0,0,.65,2.982-.025,4.091,0,0-1.778.044-1.925-4.274,0,0-3.136,3.548-5.659,3.869a11.976,11.976,0,0,1,3.809-5.146s-2.318-1.1-2.049-3.065a9.16,9.16,0,0,1,3.977,1.912s.9-2.127,2.332-2.243" transform="translate(-8.337 15.52)" fill="#f1001e"/>
  </g>
</svg>
