<svg xmlns="http://www.w3.org/2000/svg" width="187.188" height="92.676" viewBox="0 0 187.188 92.676">
  <g id="Grupo_6590" data-name="Grupo 6590" transform="translate(-526.054 -792.855)">
    <g id="Grupo_6578" data-name="Grupo 6578" transform="translate(555.435 847.5)">
      <path id="Trazado_26562" data-name="Trazado 26562" d="M703.736,828.522l-10.4-26.476h5.28l8.017,21.435,8.018-21.435h5.28l-10.4,26.476Z" transform="translate(-693.336 -801.847)" fill="#00abb5"/>
      <path id="Trazado_26563" data-name="Trazado 26563" d="M722.972,804.416a2.581,2.581,0,1,1,2.58,2.581A2.6,2.6,0,0,1,722.972,804.416Zm.516,24.095V809.338h4.169v19.172Z" transform="translate(-694.906 -801.836)" fill="#00abb5"/>
      <path id="Trazado_26564" data-name="Trazado 26564" d="M732.781,828.906V809.734h4.168v2.818a8.188,8.188,0,0,1,6.232-3.255v4.128a6.134,6.134,0,0,0-1.31-.118,6.623,6.623,0,0,0-4.923,2.54v13.059Z" transform="translate(-695.426 -802.231)" fill="#00abb5"/>
      <path id="Trazado_26565" data-name="Trazado 26565" d="M747.19,824.192V813.117h-3.175v-3.652h3.175v-5.239h4.169v5.239h3.89v3.652h-3.89V823.16c0,1.31.635,2.262,1.826,2.262a2.692,2.692,0,0,0,1.866-.674l.992,3.135a5.5,5.5,0,0,1-3.931,1.23C748.9,829.114,747.19,827.367,747.19,824.192Z" transform="translate(-696.021 -801.963)" fill="#00abb5"/>
      <path id="Trazado_26566" data-name="Trazado 26566" d="M771.963,828.93v-2.54a9.192,9.192,0,0,1-6.787,3.016c-4.129,0-6.154-2.143-6.154-6.073V809.758h4.168v12.068c0,2.976,1.51,3.889,3.852,3.889a6.378,6.378,0,0,0,4.922-2.5V809.758h4.168V828.93Z" transform="translate(-696.817 -802.256)" fill="#00abb5"/>
      <path id="Trazado_26567" data-name="Trazado 26567" d="M793.6,828.9V826.84a8.1,8.1,0,0,1-6.193,2.54c-3.135,0-6.669-2.1-6.669-6.352,0-4.4,3.534-6.231,6.669-6.231a7.927,7.927,0,0,1,6.193,2.461V816.4c0-2.223-1.826-3.572-4.487-3.572a7.849,7.849,0,0,0-5.675,2.42l-1.708-2.9a11.4,11.4,0,0,1,8.059-3.1c4.247,0,7.979,1.786,7.979,6.946v12.7Zm0-4.366v-2.9a5.616,5.616,0,0,0-4.567-1.984c-2.34,0-4.088,1.349-4.088,3.454,0,2.064,1.748,3.413,4.088,3.413A5.616,5.616,0,0,0,793.6,824.538Z" transform="translate(-697.967 -802.229)" fill="#00abb5"/>
      <path id="Trazado_26568" data-name="Trazado 26568" d="M803.582,828.522V802.046h4.168v26.476Z" transform="translate(-699.178 -801.847)" fill="#00abb5"/>
    </g>
    <path id="Trazado_26569" data-name="Trazado 26569" d="M674.85,797.771a218.184,218.184,0,0,1,43.232-10.328,319.841,319.841,0,0,1,88.879.085,216.192,216.192,0,0,1,43.2,10.459,348.682,348.682,0,0,0-43.617-7.084q-21.954-2.162-44.027-2.164-22.046-.01-44.032,2.065A351.863,351.863,0,0,0,674.85,797.771Z" transform="translate(-136.922 46.589)" fill="#00abb5"/>
    <g id="Grupo_6579" data-name="Grupo 6579" transform="translate(684.071 859.325)">
      <path id="Trazado_26570" data-name="Trazado 26570" d="M855.025,833.412l-6.9-6.9,3.383-3.384a1.2,1.2,0,0,0-.467-1.98l-20.3-6.766a1.2,1.2,0,0,0-1.513,1.513L836,836.2a1.2,1.2,0,0,0,1.981.467l3.383-3.383,6.9,6.9a1.2,1.2,0,0,0,1.692,0l5.074-5.075A1.2,1.2,0,0,0,855.025,833.412Zm-5.921,4.229-6.9-6.9a1.2,1.2,0,0,0-1.691,0l-2.861,2.86-5.4-16.194,16.193,5.4-2.86,2.861a1.2,1.2,0,0,0,0,1.691l6.9,6.9Z" transform="translate(-829.169 -814.323)" fill="#003480"/>
    </g>
    <g id="Grupo_6581" data-name="Grupo 6581" transform="translate(671.394 847.036)">
      <g id="Grupo_6580" data-name="Grupo 6580">
        <path id="Trazado_26571" data-name="Trazado 26571" d="M832.135,810.916a1.2,1.2,0,0,0,1.2-1.2v-7.177a1.2,1.2,0,0,0-2.393,0v7.177A1.2,1.2,0,0,0,832.135,810.916Z" transform="translate(-816.586 -801.346)" fill="#00abb5"/>
        <path id="Trazado_26572" data-name="Trazado 26572" d="M822.264,806.135a1.2,1.2,0,0,0-1.691,1.692l5.075,5.074a1.2,1.2,0,0,0,1.691-1.691Z" transform="translate(-816.018 -801.581)" fill="#00abb5"/>
        <path id="Trazado_26573" data-name="Trazado 26573" d="M825.647,822.212l-5.075,5.074a1.2,1.2,0,0,0,1.691,1.692l5.075-5.075a1.2,1.2,0,0,0-1.691-1.691Z" transform="translate(-816.018 -802.433)" fill="#00abb5"/>
        <path id="Trazado_26574" data-name="Trazado 26574" d="M838.34,812.9l5.075-5.074a1.2,1.2,0,0,0-1.691-1.692l-5.075,5.075a1.2,1.2,0,0,0,1.691,1.691Z" transform="translate(-816.87 -801.581)" fill="#00abb5"/>
        <path id="Trazado_26575" data-name="Trazado 26575" d="M825.352,817.7a1.2,1.2,0,0,0-1.2-1.2h-7.176a1.2,1.2,0,0,0,0,2.392h7.176A1.2,1.2,0,0,0,825.352,817.7Z" transform="translate(-815.783 -802.149)" fill="#00abb5"/>
      </g>
    </g>
    <g id="Grupo_6583" data-name="Grupo 6583" transform="translate(526.054 792.855)">
      <g id="Grupo_6582" data-name="Grupo 6582">
        <path id="Trazado_26576" data-name="Trazado 26576" d="M677.811,762.938l7.928,23.825-5.019,1.671-7.928-23.825-9,2.995-1.485-4.46,23.42-7.794,1.484,4.46Z" transform="translate(-662.31 -744.728)" fill="#003480"/>
        <path id="Trazado_26577" data-name="Trazado 26577" d="M709.169,780.929l-.435-1.778a9.193,9.193,0,0,1-2.514,2.227A10.767,10.767,0,0,1,703,782.836q-7.373,1.8-9.286-6.025l-3.358-13.737,4.941-1.207,3.266,13.361q.994,4.071,4.652,3.178a6.117,6.117,0,0,0,2.911-1.633,4.559,4.559,0,0,0,1.423-2.485l-3.555-14.547,4.942-1.207,5.178,21.188Z" transform="translate(-663.796 -744.897)" fill="#003480"/>
        <path id="Trazado_26578" data-name="Trazado 26578" d="M734.513,750.7l3.117,24.914-5.248.657-3.119-24.915-9.409,1.178-.584-4.664,24.492-3.065.582,4.663Z" transform="translate(-665.328 -744.169)" fill="#003480"/>
        <path id="Trazado_26579" data-name="Trazado 26579" d="M751.472,774.474l-.983-17.594-2.782.155-.232-4.165,7.922-.442,1.216,21.759Zm.936-30.336a2.952,2.952,0,1,1-2.035.98A2.84,2.84,0,0,1,752.408,744.139Z" transform="translate(-666.823 -744.133)" fill="#003480"/>
        <path id="Trazado_26580" data-name="Trazado 26580" d="M782.367,765.3l-15.564-.283a5.522,5.522,0,0,0,1.717,4.081,6.486,6.486,0,0,0,4.408,1.526,7.167,7.167,0,0,0,5.322-1.714l1.9,3.922q-2.723,2.129-8.055,2.03a10.613,10.613,0,0,1-7.83-3.063q-2.845-2.973-2.75-8.2a11.3,11.3,0,0,1,3.337-8.283,11.169,11.169,0,0,1,15.255-.089,9.686,9.686,0,0,1,2.736,7.255A14.248,14.248,0,0,1,782.367,765.3Zm-15.31-4.105,10.7.2q-.442-4.791-5.2-4.878Q768.2,756.434,767.057,761.2Z" transform="translate(-667.566 -744.564)" fill="#003480"/>
        <path id="Trazado_26581" data-name="Trazado 26581" d="M801.248,776.669l1.512-12.5a6.32,6.32,0,0,0-.572-4.169,4.3,4.3,0,0,0-3.311-1.691,5.4,5.4,0,0,0-2.448.339,5.494,5.494,0,0,0-2.157,1.317L792.381,775.6l-5.051-.611,2.617-21.635,3.636.439.686,2.133a7.586,7.586,0,0,1,6.373-1.688,8.124,8.124,0,0,1,5.811,3.049,8.973,8.973,0,0,1,1.452,6.724L806.3,777.28Z" transform="translate(-668.935 -744.622)" fill="#003480"/>
        <path id="Trazado_26582" data-name="Trazado 26582" d="M826.025,781.172l.3-1.29a5.141,5.141,0,0,1-2.352.7,9.465,9.465,0,0,1-3.151-.19,9.183,9.183,0,0,1-6.344-4.421q-1.9-3.4-.745-8.439a11.9,11.9,0,0,1,4.808-7.529,9.816,9.816,0,0,1,8.054-1.481,9.983,9.983,0,0,1,4.175,2l1.954-8.508,5.23-.051-6.967,30.342Zm3.712-16.163a5.37,5.37,0,0,0-3.021-2.029,5.942,5.942,0,0,0-5,.762,7.8,7.8,0,0,0-2.8,4.837q-1.521,6.624,4.865,8.09a4.968,4.968,0,0,0,1.853-.023,3.293,3.293,0,0,0,1.557-.551Z" transform="translate(-670.31 -744.549)" fill="#003480"/>
        <path id="Trazado_26583" data-name="Trazado 26583" d="M848.6,786.07a4.92,4.92,0,0,1-2.881.991,9.182,9.182,0,0,1-3.634-.468,8.127,8.127,0,0,1-4.678-3.441,6.285,6.285,0,0,1-.306-5.378,7,7,0,0,1,4.587-4.7q3.375-1.114,8.328.563a8.951,8.951,0,0,1,1.906.968q1.233-3.642-3.372-5.2a10.807,10.807,0,0,0-4.855-.634l.224-4.091a14.287,14.287,0,0,1,6.321.809q4.722,1.6,6.192,4.492t-.561,8.887l-1.494,4.413q-1.4,4.125-.1,5.747a2.736,2.736,0,0,1-1.763.83,5.665,5.665,0,0,1-1.76-.327,2.828,2.828,0,0,1-1.608-1.4A4.137,4.137,0,0,1,848.6,786.07Zm2.128-7.807a10.851,10.851,0,0,0-1.765-.878q-5.706-1.931-6.971,1.808-.94,2.774,2.279,3.865,4.337,1.469,5.8-2.869Z" transform="translate(-671.548 -745.218)" fill="#003480"/>
      </g>
    </g>
  </g>
</svg>
