<svg id="Grupo_6597" data-name="Grupo 6597" xmlns="http://www.w3.org/2000/svg" xmlns:xlink="http://www.w3.org/1999/xlink" width="26.694" height="24.613" viewBox="0 0 26.694 24.613">
  <defs>
    <clipPath id="clip-path">
      <rect id="Rectángulo_6349" data-name="Rectángulo 6349" width="26.694" height="24.613" fill="#fff"/>
    </clipPath>
  </defs>
  <g id="Grupo_1559" data-name="Grupo 1559" clip-path="url(#clip-path)">
    <path id="Trazado_51167" data-name="Trazado 51167" d="M18.792,55.283a2.046,2.046,0,1,1-2.046-2.046,2.046,2.046,0,0,1,2.046,2.046" transform="translate(-9.034 -32.716)" fill="#fff"/>
    <path id="Trazado_51168" data-name="Trazado 51168" d="M53.665,55.013a2.046,2.046,0,1,1-2.046-2.046,2.046,2.046,0,0,1,2.046,2.046" transform="translate(-30.465 -32.55)" fill="#fff"/>
    <path id="Trazado_51169" data-name="Trazado 51169" d="M9.672,18.819a.95.95,0,0,1-.8-.45,1.262,1.262,0,0,1-.213-.337L2.464,2.147H1.072A1.073,1.073,0,0,1,1.072,0H2.72a.917.917,0,0,1,.123.013l.072.011.1-.008A1.069,1.069,0,0,1,3.192,0,1.085,1.085,0,0,1,4.2.683l.677,1.739H25.392a1.087,1.087,0,0,1,.658.158,1.267,1.267,0,0,1,.577,1.449l-3.157,8.1a1.682,1.682,0,0,1-.472.681.85.85,0,0,1-.479.163L22.363,13,9.7,14.813l.725,1.86H21.78a.956.956,0,0,1,.956.956v.235a.956.956,0,0,1-.956.955ZM8.9,12.76l12.732-1.827,2.48-6.365H5.711Z" transform="translate(0 0)" fill="#fff"/>
  </g>
</svg>
