<svg xmlns="http://www.w3.org/2000/svg" xmlns:xlink="http://www.w3.org/1999/xlink" width="152" height="75" viewBox="0 0 152 75">
  <defs>
    <filter id="Rectángulo_349" x="0" y="0" width="75" height="75" filterUnits="userSpaceOnUse">
      <feOffset dy="3" input="SourceAlpha"/>
      <feGaussianBlur stdDeviation="1.5" result="blur"/>
      <feFlood flood-opacity="0.102"/>
      <feComposite operator="in" in2="blur"/>
      <feComposite in="SourceGraphic"/>
    </filter>
    <filter id="Rectángulo_351" x="78" y="0" width="74" height="75" filterUnits="userSpaceOnUse">
      <feOffset dy="3" input="SourceAlpha"/>
      <feGaussianBlur stdDeviation="1.5" result="blur-2"/>
      <feFlood flood-opacity="0.102"/>
      <feComposite operator="in" in2="blur-2"/>
      <feComposite in="SourceGraphic"/>
    </filter>
  </defs>
  <g id="Grupo_3719" data-name="Grupo 3719" transform="translate(-224.5 -1637.5)">
    <g id="Grupo_3717" data-name="Grupo 3717">
      <g transform="matrix(1, 0, 0, 1, 224.5, 1637.5)" filter="url(#Rectángulo_349)">
        <rect id="Rectángulo_349-2" data-name="Rectángulo 349" width="66" height="66" rx="20" transform="translate(4.5 1.5)" fill="#fff"/>
      </g>
      <path id="Trazado_2807" data-name="Trazado 2807" d="M20,0H46A20,20,0,0,1,66,20v3H0V20A20,20,0,0,1,20,0Z" transform="translate(229 1639)" fill="#ed5f2b"/>
      <text id="DIC." transform="translate(263 1654)" fill="#fff" font-size="12" font-family="ProximaNova-Extrabld, Proxima Nova"><tspan x="-11" y="0">DIC.</tspan></text>
      <text id="_20" data-name="20" transform="translate(262 1691)" fill="#3b3b3b" font-size="29" font-family="ProximaNova-Light, Proxima Nova" font-weight="300"><tspan x="-17" y="0">20</tspan></text>
    </g>
    <g id="Grupo_3716" data-name="Grupo 3716">
      <g transform="matrix(1, 0, 0, 1, 224.5, 1637.5)" filter="url(#Rectángulo_351)">
        <rect id="Rectángulo_351-2" data-name="Rectángulo 351" width="65" height="66" rx="20" transform="translate(82.5 1.5)" fill="#fff"/>
      </g>
      <path id="Rectángulo_352" data-name="Rectángulo 352" d="M20,0H45A20,20,0,0,1,65,20v3a0,0,0,0,1,0,0H0a0,0,0,0,1,0,0V20A20,20,0,0,1,20,0Z" transform="translate(307 1639)" fill="#ed5f2b"/>
      <text id="DIC.-2" data-name="DIC." transform="translate(338 1654)" fill="#fff" font-size="12" font-family="ProximaNova-Extrabld, Proxima Nova"><tspan x="-11" y="0">DIC.</tspan></text>
      <text id="_21" data-name="21" transform="translate(338 1690)" fill="#3b3b3b" font-size="28" font-family="ProximaNova-Light, Proxima Nova" font-weight="300"><tspan x="-12" y="0">21</tspan></text>
    </g>
  </g>
</svg>
