<svg xmlns="http://www.w3.org/2000/svg" width="60" height="60" viewBox="0 0 60 60">
  <g id="icono-eva" transform="translate(-155 -751)">
    <g id="Grupo_3577" data-name="Grupo 3577">
      <g id="Elipse_17" data-name="Elipse 17" transform="translate(155 751)" fill="#fff" stroke="#d4e5e8" stroke-width="5">
        <circle cx="30" cy="30" r="30" stroke="none"/>
        <circle cx="30" cy="30" r="27.5" fill="none"/>
      </g>
      <circle id="Elipse_18" data-name="Elipse 18" cx="8" cy="8" r="8" transform="translate(199 751)" fill="#1f96ab"/>
      <path id="Trazado_2813" data-name="Trazado 2813" d="M2454.441,978.021q2.4,1.176,2.4,2.961a3.476,3.476,0,0,1-1.786,2.867,11.913,11.913,0,0,1-6.957,1.927q-4.466,0-6.815-2.444a9.562,9.562,0,0,1-2.35-6.91,15.922,15.922,0,0,1,1.715-7.474,12.329,12.329,0,0,1,4.63-5.029,12.606,12.606,0,0,1,6.581-1.738,7.206,7.206,0,0,1,4.958,1.645,5.5,5.5,0,0,1,1.857,4.324,7.084,7.084,0,0,1-3.2,6.251q-3.2,2.162-8.836,2.162-1.082,0-1.6-.047v.282a4.261,4.261,0,0,0,1.1,3.079,3.709,3.709,0,0,0,2.8,1.152,6.081,6.081,0,0,0,2.915-.705A8.632,8.632,0,0,0,2454.441,978.021Zm-7.567-5.217a8.168,8.168,0,0,0,4.347-1.082,3.221,3.221,0,0,0,1.763-2.82,1.927,1.927,0,0,0-.541-1.457,2.195,2.195,0,0,0-1.575-.517,4.439,4.439,0,0,0-3.36,1.551,9.1,9.1,0,0,0-2.045,4.278Q2446.027,972.8,2446.874,972.8Z" transform="translate(-2264 -192.874)" fill="#5db0be"/>
      <path id="Icon_awesome-check" data-name="Icon awesome-check" d="M3.188,11.439.137,8.388a.469.469,0,0,1,0-.664L.8,7.061a.469.469,0,0,1,.664,0L3.52,9.116l4.4-4.4a.469.469,0,0,1,.664,0l.664.664a.469.469,0,0,1,0,.664l-5.4,5.4A.469.469,0,0,1,3.188,11.439Z" transform="translate(202.01 750.858)" fill="#fff"/>
    </g>
  </g>
</svg>
