<svg xmlns="http://www.w3.org/2000/svg" width="130" height="128" viewBox="0 0 130 128">
  <g id="icono4" transform="translate(-1013 -1409)">
    <g id="Grupo_3562" data-name="Grupo 3562" transform="translate(43 -160)">
      <g id="Elipse_4" data-name="Elipse 4" transform="translate(970 1569)" fill="#fff" stroke="#d4e5e8" stroke-width="10">
        <ellipse cx="65" cy="64" rx="65" ry="64" stroke="none"/>
        <ellipse cx="65" cy="64" rx="60" ry="59" fill="none"/>
      </g>
      <path id="Icon_awesome-window-restore" data-name="Icon awesome-window-restore" d="M38.921,3.649V25.542a3.65,3.65,0,0,1-3.649,3.649H31.623V13.379A6.089,6.089,0,0,0,25.542,7.3H9.73V3.649A3.65,3.65,0,0,1,13.379,0H35.272A3.65,3.65,0,0,1,38.921,3.649Zm-9.73,9.73V35.272a3.65,3.65,0,0,1-3.649,3.649H3.649A3.65,3.65,0,0,1,0,35.272V13.379A3.65,3.65,0,0,1,3.649,9.73H25.542A3.65,3.65,0,0,1,29.191,13.379Zm-5.169,2.128a.915.915,0,0,0-.912-.912H5.777a.915.915,0,0,0-.912.912V19.46H24.021Z" transform="translate(1016 1614)" fill="#1f96ab"/>
    </g>
    <circle id="Elipse_16" data-name="Elipse 16" cx="17" cy="17" r="17" transform="translate(1109 1423)" fill="#ed5f2b"/>
    <path id="Icon_material-close" data-name="Icon material-close" d="M20.707,8.83,19.377,7.5,14.1,12.774,8.83,7.5,7.5,8.83,12.774,14.1,7.5,19.377l1.33,1.33L14.1,15.434l5.274,5.274,1.33-1.33L15.434,14.1Z" transform="translate(1111.677 1425.677)" fill="#fff" stroke="#fff" stroke-linecap="round" stroke-width="1"/>
  </g>
</svg>
