<svg id="icono2" xmlns="http://www.w3.org/2000/svg" width="128" height="128" viewBox="0 0 128 128">
  <g id="Grupo_3564" data-name="Grupo 3564">
    <g id="Elipse_1" data-name="Elipse 1" fill="#fff" stroke="#d4e5e8" stroke-width="10">
      <circle cx="64" cy="64" r="64" stroke="none"/>
      <circle cx="64" cy="64" r="59" fill="none"/>
    </g>
    <path id="Icon_material-computer" data-name="Icon material-computer" d="M42.794,35.956a4.274,4.274,0,0,0,4.258-4.279l.021-21.4A4.292,4.292,0,0,0,42.794,6H8.559a4.292,4.292,0,0,0-4.279,4.279v21.4a4.292,4.292,0,0,0,4.279,4.279H0v4.279H51.353V35.956ZM8.559,10.279H42.794v21.4H8.559Z" transform="translate(38 41)" fill="#1f96ab"/>
  </g>
  <circle id="Elipse_16" data-name="Elipse 16" cx="17" cy="17" r="17" transform="translate(93 14)" fill="#ed5f2b"/>
  <path id="Icon_material-close" data-name="Icon material-close" d="M20.707,8.83,19.377,7.5,14.1,12.774,8.83,7.5,7.5,8.83,12.774,14.1,7.5,19.377l1.33,1.33L14.1,15.434l5.274,5.274,1.33-1.33L15.434,14.1Z" transform="translate(95.677 16.677)" fill="#fff" stroke="#fff" stroke-linecap="round" stroke-width="1"/>
</svg>
