<svg xmlns="http://www.w3.org/2000/svg" width="60" height="60" viewBox="0 0 60 60">
  <g id="icono-realizar-pagos" transform="translate(-155 -751)">
    <g id="Grupo_3577" data-name="Grupo 3577">
      <g id="Elipse_17" data-name="Elipse 17" transform="translate(155 751)" fill="#fff" stroke="#d4e5e8" stroke-width="5">
        <circle cx="30" cy="30" r="30" stroke="none"/>
        <circle cx="30" cy="30" r="27.5" fill="none"/>
      </g>
      <circle id="Elipse_18" data-name="Elipse 18" cx="8" cy="8" r="8" transform="translate(199 751)" fill="#1f96ab"/>
      <path id="Icon_awesome-check" data-name="Icon awesome-check" d="M3.188,11.439.137,8.388a.469.469,0,0,1,0-.664L.8,7.061a.469.469,0,0,1,.664,0L3.52,9.116l4.4-4.4a.469.469,0,0,1,.664,0l.664.664a.469.469,0,0,1,0,.664l-5.4,5.4A.469.469,0,0,1,3.188,11.439Z" transform="translate(202.01 750.858)" fill="#fff"/>
      <path id="Icon_awesome-money-bill-wave-alt" data-name="Icon awesome-money-bill-wave-alt" d="M27.074,3.229A12.907,12.907,0,0,0,22,2.25C16.632,2.25,11.264,4.967,5.9,4.967a13.225,13.225,0,0,1-4.038-.6A1.49,1.49,0,0,0,1.406,4.3,1.387,1.387,0,0,0,0,5.685V19.513A1.386,1.386,0,0,0,.821,20.8a12.9,12.9,0,0,0,5.074.979c5.369,0,10.737-2.718,16.106-2.718a13.225,13.225,0,0,1,4.038.6,1.49,1.49,0,0,0,.451.071A1.387,1.387,0,0,0,27.9,18.341V4.513A1.388,1.388,0,0,0,27.074,3.229ZM13.948,16.2c-1.926,0-3.487-1.874-3.487-4.184s1.561-4.184,3.487-4.184,3.487,1.873,3.487,4.184S15.873,16.2,13.948,16.2Z" transform="translate(171.104 768.623)" fill="#5db0be"/>
    </g>
  </g>
</svg>
