<svg xmlns="http://www.w3.org/2000/svg" width="456.56" height="54.183" viewBox="0 0 456.56 54.183">
  <g id="logos-nova-nutresa" transform="translate(-848.999 -2568)">
    <g id="logo-nutresa" transform="translate(1082 -0.21)">
      <g id="Grupo_3530" data-name="Grupo 3530" transform="translate(105.84 2593.577)">
        <path id="Trazado_2612" data-name="Trazado 2612" d="M177.591,30.268a3.109,3.109,0,0,0-.825-.118c-1.708,0-2.946,1.178-2.946,3.24v15.9c0,3.24,2,5.3,5.361,5.3,3,0,4.3-1.119,4.3-2.533a2,2,0,0,0-.295-1.119,6.755,6.755,0,0,1-2.651.648c-1.885,0-2.946-.825-2.946-3.181V38.036a12.308,12.308,0,0,1,2.71-.295,11.391,11.391,0,0,1,3.417.471,2.809,2.809,0,0,0,.236-1.178c0-1.473-.943-2.239-3.3-2.239a10.8,10.8,0,0,0-3.064.471Z" transform="translate(-132.025 -30.15)" fill="#245836"/>
        <path id="Trazado_2613" data-name="Trazado 2613" d="M162.094,35.88a5.339,5.339,0,0,0-1.355.236V49.893a5.835,5.835,0,0,1-4.831,2.592c-1.826,0-2.946-1.178-2.946-3.3V38.59c0-1.591-.825-2.71-2.348-2.71a3.365,3.365,0,0,0-1.414.236V49.952c0,4.183,2.828,5.656,5.6,5.656a7.994,7.994,0,0,0,5.95-2.71v.118a1.967,1.967,0,0,0,2.239,2.239,3.628,3.628,0,0,0,1.532-.353V38.59c-.008-1.591-.774-2.71-2.424-2.71Z" transform="translate(-128.126 -31.057)" fill="#245836"/>
        <path id="Trazado_2614" data-name="Trazado 2614" d="M253.531,35.33c-4.124,0-6.826,1.414-6.826,3.24a1.488,1.488,0,0,0,.707,1.414,10.487,10.487,0,0,1,5.067-1.355c3.3,0,4.89,1.355,4.89,5.058V44.1a17.614,17.614,0,0,0-2.651-.177c-5.479,0-8.888,2.239-8.888,6.178,0,3.3,2.415,5.42,6.009,5.42a6.574,6.574,0,0,0,5.479-2.71,2.114,2.114,0,0,0,2.357,2.357,3.378,3.378,0,0,0,1.473-.353V42.98c-.025-5.361-2.794-7.65-7.617-7.65Zm3.821,14.712a4.509,4.509,0,0,1-4.183,2.651c-2.18,0-3.358-1.06-3.358-2.769,0-2,1.532-3.358,5.117-3.358a17.285,17.285,0,0,1,2.415.177v3.3Z" transform="translate(-143.429 -30.97)" fill="#245836"/>
        <path id="Trazado_2615" data-name="Trazado 2615" d="M229.887,40.917c0-1.826,1.591-2.533,3.829-2.533a9.141,9.141,0,0,1,4.949,1.3,1.643,1.643,0,0,0,.648-1.3c0-1.708-1.3-3.064-5.774-3.064-4.654,0-7.6,2.3-7.6,5.891,0,4.3,3.417,5.126,6.363,5.774,2.121.471,4.006.943,4.006,2.887,0,1.826-1.767,2.533-4.124,2.533a10.193,10.193,0,0,1-5.361-1.3,1.915,1.915,0,0,0-.589,1.414c0,1.767,1.591,3,5.656,3,5.471,0,8.24-2.357,8.24-5.95,0-4.3-3.417-5.126-6.245-5.832-2.112-.53-4-.943-4-2.828Z" transform="translate(-140.279 -30.969)" fill="#245836"/>
        <path id="Trazado_2616" data-name="Trazado 2616" d="M198.441,35.33a5.794,5.794,0,0,0-4.949,3.653c.354-2.415-.884-3.181-2.062-3.181a6.913,6.913,0,0,0-1.591.295V52.937a2.131,2.131,0,0,0,2.3,2.239,3.378,3.378,0,0,0,1.473-.353V42.215a5.066,5.066,0,0,1,5.008-3.829,9.236,9.236,0,0,1,1.708.118,2.293,2.293,0,0,0,.412-1.355c0-.934-.589-1.818-2.3-1.818Z" transform="translate(-134.562 -30.97)" fill="#245836"/>
        <path id="Trazado_2617" data-name="Trazado 2617" d="M126.567,55.188a5.77,5.77,0,0,0,1.355-.236V41.175a6.124,6.124,0,0,1,4.772-2.592c2.239,0,3.535,1.237,3.535,3.712V52.478c0,1.591.825,2.71,2.357,2.71A3.365,3.365,0,0,0,140,54.952V41.528c0-4.183-2.887-6.068-6.178-6.068a7.987,7.987,0,0,0-5.891,2.71v-.118a1.967,1.967,0,0,0-2.239-2.239,3.628,3.628,0,0,0-1.532.353V52.478c-.008,1.591.757,2.71,2.407,2.71Z" transform="translate(-124.16 -30.991)" fill="#245836"/>
        <path id="Trazado_2618" data-name="Trazado 2618" d="M219.5,41.211c0-3.417-2.533-5.891-7.179-5.891-5.184,0-8.829,3.947-8.829,10.184,0,6.363,3.653,10.007,9.536,10.007,3.712,0,6.363-1.178,6.363-3.064a1.732,1.732,0,0,0-.53-1.3,8.787,8.787,0,0,1-4.764,1.3c-3.535,0-6.422-2.062-6.657-6.119a13.736,13.736,0,0,0,3.476.471c5.176.008,8.585-2.054,8.585-5.588Zm-7.179-2.769c2.357,0,3.358,1.119,3.358,2.651,0,1.767-1.767,2.828-5.126,2.828a12.708,12.708,0,0,1-3-.353C207.664,40.269,209.668,38.442,212.319,38.442Z" transform="translate(-136.723 -30.969)" fill="#245836"/>
      </g>
      <path id="Trazado_2619" data-name="Trazado 2619" d="M40.466,15.656A2.585,2.585,0,1,0,37.512,13.5,2.582,2.582,0,0,0,40.466,15.656Zm14.08-9.839a2.585,2.585,0,1,0-2.971-2.129A2.573,2.573,0,0,0,54.546,5.817Zm16.4.017A2.587,2.587,0,1,0,68.5,3.116,2.587,2.587,0,0,0,70.95,5.834ZM84.9,15.715a2.584,2.584,0,1,0-2-3.055A2.59,2.59,0,0,0,84.9,15.715Zm6.034,10.209a2.584,2.584,0,1,0,2.272,2.862A2.584,2.584,0,0,0,90.938,25.924ZM35.921,31.739a2.588,2.588,0,1,0-3.03-2.054A2.586,2.586,0,0,0,35.921,31.739Zm22.993-2.946c.227-.16.261-.4.017-.858-4.974-7.709-13.921-9.763-18.154-9.754A7.319,7.319,0,0,0,36.5,19.41c12.742.269,21.647,9.207,21.647,9.207C58.426,28.878,58.687,28.954,58.914,28.794ZM47.493,17.676c.286.236.564.345.741.2.109-.093.143-.286-.059-.6a13.722,13.722,0,0,1-1.8-8.862S42.654,13.653,47.493,17.676ZM58.67,20.512c.093.311.278.665.648.631.337-.034.421-.227.429-.732-.261-8.761-7.583-15.629-12.557-14C53.04,8.805,57.029,14.907,58.67,20.512Zm-.589-10.167c.286-.042.286-.353.278-.572A10.162,10.162,0,0,1,61.49,1.449l-.715.219C57.416,2.686,57,6.836,57.644,9.807,57.719,10.194,57.888,10.37,58.081,10.345ZM65.142,25.7c.4-.1.311-.741.311-.741C64.427,14.781,72.145,8.771,75.276,7.273c-5.8-.3-10.966,4.688-11.657,11.379a13.864,13.864,0,0,0,.892,6.582C64.671,25.57,64.882,25.764,65.142,25.7Zm.648-16.53s-.093.5.252.665c.244.118.488.05.707-.37,1.052-2.188,1.3-6.1-2.2-9.452A17.971,17.971,0,0,1,65.79,9.167Zm7.777,13.079s-.581.362-.32.808a.662.662,0,0,0,.85.185A13.355,13.355,0,0,0,80.174,5.4a18.748,18.748,0,0,1-.446,7.255A17.922,17.922,0,0,1,73.567,22.246Zm7.507-3.493c-.353.286-.37.555-.244.732a.634.634,0,0,0,.732.143,17.751,17.751,0,0,1,9.224-.673C86.772,16.22,83,17.272,81.074,18.753Zm-5.732,10.6c-.151.017-.37.1-.379.278s.177.328.631.4c7.1.783,14.072-3.9,12.717-8.846C86.806,24.459,81.815,28.651,75.343,29.358Zm8.206.842c-.4-.008-.589.126-.631.328-.084.337.168.547.454.648a17.992,17.992,0,0,1,7.541,5.344C89.558,31.874,85.973,30.283,83.549,30.2Zm-46.98-7.12a9.93,9.93,0,0,0,2.222,3.535A13.815,13.815,0,0,0,49.6,30.4c.345-.042.547-.21.539-.48-.008-.3-.286-.362-.606-.37C43.672,29.433,36.569,23.079,36.569,23.079Zm6.851,8.677c-.017-.286-.236-.446-.673-.48a8.2,8.2,0,0,0-8.029,5.462,18.2,18.2,0,0,1,8.1-4.444C43.193,32.219,43.437,32.076,43.42,31.756ZM86.36,53.807a49.879,49.879,0,0,0-19.3-5.151C63.585,37.824,69.67,28.937,69.9,28.609c.278-.4.286-.64.118-.766-.2-.143-.454-.017-.707.227,0,0-9.578,8.458-4.217,20.494-.572-.017-3.737-.034-5.033.067a9.654,9.654,0,0,0-.2-10.68c-.194-.252-.362-.278-.53-.194-.185.1-.21.345-.1.631A13.106,13.106,0,0,1,58.3,48.766a48.9,48.9,0,0,0-17.927,5.041.23.23,0,0,0-.109.278c.034.084.135.126.328.059a73.676,73.676,0,0,1,22.774-3.451,74.461,74.461,0,0,1,22.842,3.476c.168.042.253.034.3-.067S86.5,53.883,86.36,53.807Z" transform="translate(-3.858 2568.2)" fill="#13b545"/>
      <g id="Grupo_3531" data-name="Grupo 3531" transform="translate(105.605 2574.8)">
        <path id="Trazado_2620" data-name="Trazado 2620" d="M131.337,14.573H129V13.386h3.737v4.738a2.076,2.076,0,0,1-.429.379,4.817,4.817,0,0,1-.8.454,6.594,6.594,0,0,1-1.153.387,6.243,6.243,0,0,1-1.5.16,5.221,5.221,0,0,1-2.23-.438,4.1,4.1,0,0,1-1.549-1.22,5.219,5.219,0,0,1-.9-1.868,9.1,9.1,0,0,1-.295-2.365,8.414,8.414,0,0,1,.3-2.314,5.113,5.113,0,0,1,.917-1.826,4.263,4.263,0,0,1,1.582-1.2,5.527,5.527,0,0,1,2.272-.438,5.088,5.088,0,0,1,1.187.143,4.657,4.657,0,0,1,1.035.37,3,3,0,0,1,.741.5.764.764,0,0,1,.286.53.953.953,0,0,1-.135.454,3.049,3.049,0,0,1-.3.454h-.286a2.569,2.569,0,0,0-.4-.387,3.848,3.848,0,0,0-.581-.379,3.481,3.481,0,0,0-.741-.286,3.407,3.407,0,0,0-.909-.109,3.311,3.311,0,0,0-1.692.387,3.157,3.157,0,0,0-1.069,1.01,4.14,4.14,0,0,0-.564,1.431,8.59,8.59,0,0,0,.017,3.383,4.34,4.34,0,0,0,.606,1.49,3.273,3.273,0,0,0,1.119,1.052,3.41,3.41,0,0,0,1.734.4,3.883,3.883,0,0,0,.867-.084,5.524,5.524,0,0,0,.682-.2,3.036,3.036,0,0,0,.5-.244,1.751,1.751,0,0,0,.3-.227V14.573Z" transform="translate(-123.88 -7.84)" fill="#245836"/>
        <path id="Trazado_2621" data-name="Trazado 2621" d="M137.08,11.971c.177-.008.278-.017.3-.017a1.343,1.343,0,0,1,.7.194.865.865,0,0,1,.379.648,2.464,2.464,0,0,1,.707-.665,1.89,1.89,0,0,1,1.086-.311,2.215,2.215,0,0,1,.4.034,1.952,1.952,0,0,1,.4.109.727.727,0,0,1,.3.21.542.542,0,0,1,.118.353,1.443,1.443,0,0,1-.135.581,3.168,3.168,0,0,1-.269.513,1.7,1.7,0,0,0-.471-.311,1.559,1.559,0,0,0-.64-.109,1.7,1.7,0,0,0-.547.093,1.449,1.449,0,0,0-.463.252,1.288,1.288,0,0,0-.32.362.86.86,0,0,0-.118.421v5.555H137.08V11.971Z" transform="translate(-125.971 -8.47)" fill="#245836"/>
        <path id="Trazado_2622" data-name="Trazado 2622" d="M143.92,11.935c.143-.008.244-.017.3-.017a1.222,1.222,0,0,1,.808.252,1.072,1.072,0,0,1,.311.884v3.9a4.725,4.725,0,0,0,.093,1.035.933.933,0,0,0,.379.589,1.353,1.353,0,0,0,.547.252,3.219,3.219,0,0,0,.682.067,2.533,2.533,0,0,0,.825-.126,2.575,2.575,0,0,0,.648-.311,1.74,1.74,0,0,0,.421-.4.665.665,0,0,0,.151-.379V11.927c.143-.008.244-.017.3-.017a1.222,1.222,0,0,1,.808.252,1.072,1.072,0,0,1,.311.884V19.88h-1.422V19.14a3.066,3.066,0,0,1-.934.69,3.465,3.465,0,0,1-1.557.3,3.078,3.078,0,0,1-1.507-.3,1.949,1.949,0,0,1-.791-.774,2.52,2.52,0,0,1-.311-1.027c-.034-.37-.051-.732-.051-1.077V11.935Z" transform="translate(-127.054 -8.485)" fill="#245836"/>
        <path id="Trazado_2623" data-name="Trazado 2623" d="M154.68,11.971c.168-.008.269-.017.32-.017a1.275,1.275,0,0,1,.7.185.954.954,0,0,1,.4.623,2.649,2.649,0,0,1,.884-.665,3.22,3.22,0,0,1,1.422-.278,3.5,3.5,0,0,1,1.229.219,2.6,2.6,0,0,1,1.018.7,3.513,3.513,0,0,1,.707,1.237,5.714,5.714,0,0,1,.261,1.868,5.962,5.962,0,0,1-.311,2.087,3.555,3.555,0,0,1-.8,1.313,2.932,2.932,0,0,1-1.094.69,3.68,3.68,0,0,1-1.17.2,2.723,2.723,0,0,1-1.422-.311,2.582,2.582,0,0,1-.707-.564v4.233h-1.422V11.971Zm1.422,6.009a2.686,2.686,0,0,0,.269.295,1.791,1.791,0,0,0,.412.295,2.828,2.828,0,0,0,.555.236,2.156,2.156,0,0,0,.665.1,1.762,1.762,0,0,0,1.565-.774,3.892,3.892,0,0,0,.53-2.213,5.424,5.424,0,0,0-.109-1.136,2.82,2.82,0,0,0-.353-.917,1.775,1.775,0,0,0-.656-.614,2.083,2.083,0,0,0-1.01-.227,2.4,2.4,0,0,0-1.33.337.956.956,0,0,0-.53.8v3.821Z" transform="translate(-128.758 -8.47)" fill="#245836"/>
        <path id="Trazado_2624" data-name="Trazado 2624" d="M165.722,18.881a3.686,3.686,0,0,1-.64-1.33,6.213,6.213,0,0,1-.2-1.6,5.236,5.236,0,0,1,.236-1.591,3.659,3.659,0,0,1,.707-1.313,3.405,3.405,0,0,1,1.161-.892,3.674,3.674,0,0,1,1.633-.337,3.737,3.737,0,0,1,1.675.337,3.188,3.188,0,0,1,1.119.892,3.737,3.737,0,0,1,.64,1.3,5.846,5.846,0,0,1,.2,1.557,6.13,6.13,0,0,1-.2,1.582,3.709,3.709,0,0,1-.648,1.347,3.2,3.2,0,0,1-1.145.934,4.382,4.382,0,0,1-3.409.017A2.916,2.916,0,0,1,165.722,18.881Zm1.759-.227a1.973,1.973,0,0,0,1.069.269,1.9,1.9,0,0,0,1.776-.985,3.153,3.153,0,0,0,.328-.959,6.428,6.428,0,0,0,.093-1.052,5.974,5.974,0,0,0-.093-1.027,2.708,2.708,0,0,0-.328-.917,1.839,1.839,0,0,0-.656-.665,2.406,2.406,0,0,0-2.146,0,1.913,1.913,0,0,0-.682.665,3.03,3.03,0,0,0-.362.917,4.68,4.68,0,0,0-.109,1.027,6.424,6.424,0,0,0,.093,1.052,2.717,2.717,0,0,0,.345.959A2.184,2.184,0,0,0,167.481,18.654Z" transform="translate(-130.373 -8.47)" fill="#245836"/>
      </g>
    </g>
    <g id="logo-novaventa" transform="translate(-82 597)">
      <path id="Trazado_2625" data-name="Trazado 2625" d="M167.317,32a2.239,2.239,0,0,0-2.774,1.773c-1.058,3.737-2.6,8.683-4.589,12.1-.43.742-1.434,3-3.533,3s-3.1-2.253-3.535-3c-1.992-3.416-3.53-8.363-4.587-12.1A2.24,2.24,0,0,0,145.524,32c-1.729.486-1.4,2.327-1.176,3.114a69.571,69.571,0,0,0,3.815,10.777c1.575,3.269,3.62,7.038,8.264,7.038s6.679-3.768,8.249-7.038a69.367,69.367,0,0,0,3.82-10.777c.222-.787.55-2.628-1.179-3.114" transform="translate(883.568 1957.815)" fill="#003a8f"/>
      <path id="Trazado_2626" data-name="Trazado 2626" d="M54.328,32.059A10.372,10.372,0,1,0,64.7,42.431,10.372,10.372,0,0,0,54.328,32.059m0,16.389a6.017,6.017,0,1,1,6.016-6.017,6.016,6.016,0,0,1-6.016,6.017" transform="translate(913.522 1957.771)" fill="#003a8f"/>
      <path id="Trazado_2627" data-name="Trazado 2627" d="M43.218,59.3h-.05c-8-.023-13.566-3.753-17.028-11.4a45.361,45.361,0,0,1-1.877-5.229c-1.734-5.529-2.77-7.753-6.089-7.555-4.652.287-7.277,12.9-7.82,18.957A2.087,2.087,0,1,1,6.2,53.7,65.91,65.91,0,0,1,8.171,43.077c2.191-7.785,5.47-11.867,9.747-12.13,6.908-.433,8.808,5.618,10.329,10.473a43.054,43.054,0,0,0,1.7,4.757c2.755,6.086,6.963,8.931,13.239,8.949h.037a12.883,12.883,0,0,0,8.559-3.3,2.088,2.088,0,1,1,2.973,2.931A17.148,17.148,0,0,1,43.218,59.3" transform="translate(924.811 1958.11)" fill="#003a8f"/>
      <path id="Trazado_2628" data-name="Trazado 2628" d="M110.711,22.174l-.049.006c-7.95.862-13.1,5.157-15.738,13.128a46.076,46.076,0,0,0-1.317,5.4c-1.142,5.68-1.94,8-5.261,8.152-4.655.2-8.59-12.061-9.768-18.032a2.088,2.088,0,0,0-4.1.807A65.977,65.977,0,0,0,77.563,41.99c2.994,7.512,6.685,11.225,10.966,11.04,6.915-.292,8.169-6.51,9.172-11.5A42.4,42.4,0,0,1,98.89,36.62c2.1-6.344,5.983-9.613,12.224-10.291l.037,0a12.879,12.879,0,0,1,8.856,2.381,2.088,2.088,0,0,0,2.652-3.226,17.151,17.151,0,0,0-11.947-3.306" transform="translate(904.409 1960.753)" fill="#003a8f"/>
      <path id="Trazado_2629" data-name="Trazado 2629" d="M221.584,32.047a9.767,9.767,0,0,1,3.785.753,9.892,9.892,0,0,1,3.165,2.082,10.268,10.268,0,0,1,2.179,3.178,9.719,9.719,0,0,1,.823,3.993V50.73a2,2,0,0,1-.6,1.46,2.085,2.085,0,0,1-1.418.645,2,2,0,0,1-1.42-.559,1.859,1.859,0,0,1-.6-1.416V42.441a6.347,6.347,0,0,0-.453-2.405,6.129,6.129,0,0,0-1.256-1.954,6.023,6.023,0,0,0-1.892-1.331,5.679,5.679,0,0,0-2.363-.494,5.606,5.606,0,0,0-2.241.452,5.76,5.76,0,0,0-1.852,1.267,6.3,6.3,0,0,0-1.275,1.89,5.726,5.726,0,0,0-.471,2.319V50.73a2.03,2.03,0,0,1-.617,1.482,1.967,1.967,0,0,1-1.439.623,2.07,2.07,0,0,1-1.44-.559,1.827,1.827,0,0,1-.617-1.416V42.441a11.1,11.1,0,0,1,2.92-7.344,9.52,9.52,0,0,1,7.073-3.05" transform="translate(863.413 1957.775)" fill="#003a8f"/>
      <path id="Trazado_2630" data-name="Trazado 2630" d="M245.419,22.741a1.915,1.915,0,0,1,1.491.662,2.712,2.712,0,0,1,.674,1.642v3.837H259a1.811,1.811,0,0,1,1.427.662,2.26,2.26,0,0,1-.041,3.048,1.821,1.821,0,0,1-1.387.683H247.584V39.5a6.33,6.33,0,0,0,.449,2.367,6.26,6.26,0,0,0,1.248,1.983,6.069,6.069,0,0,0,1.879,1.365,5.312,5.312,0,0,0,2.307.512,6.032,6.032,0,0,0,2.347-.405,5.35,5.35,0,0,0,1.695-1.131h-.041a2.157,2.157,0,0,1,3.022.043,1.987,1.987,0,0,1,.571,1.493,2.664,2.664,0,0,1-.1.7,1.3,1.3,0,0,1-.388.618h.04a10.469,10.469,0,0,1-3.124,2.218,8.857,8.857,0,0,1-3.7.768,10.867,10.867,0,0,1-4.02-.747,9.7,9.7,0,0,1-3.309-2.133A10.591,10.591,0,0,1,244.2,43.83a11.034,11.034,0,0,1-.9-4.329V25.045a2.443,2.443,0,0,1,.593-1.579,1.886,1.886,0,0,1,1.53-.725" transform="translate(853.937 1960.556)" fill="#003a8f"/>
      <path id="Trazado_2631" data-name="Trazado 2631" d="M198.976,38.566a11.3,11.3,0,0,0-2.19-3.3,10.844,10.844,0,0,0-3.16-2.287,8.664,8.664,0,0,0-7.56,0,11.23,11.23,0,0,0-3.165,2.287,10.574,10.574,0,0,0-2.168,3.3,10.041,10.041,0,0,0-.789,3.916,10.421,10.421,0,0,0,.789,4.023,10.933,10.933,0,0,0,2.15,3.344,10.053,10.053,0,0,0,3.162,2.265,8.14,8.14,0,0,0,3.791.74c.142,0,.279-.021.417-.034a8.2,8.2,0,0,0,3.113-.7,9.809,9.809,0,0,0,2.919-2.075l.1-.127a1.132,1.132,0,0,0,.222-.451,2.474,2.474,0,0,0,.1-.658,1.854,1.854,0,0,0-.535-1.4,2.015,2.015,0,0,0-2.827-.041l-.032.043a4.922,4.922,0,0,1-.634.53,5.039,5.039,0,0,1-1.343.507,6.782,6.782,0,0,1-1.458.212,6.011,6.011,0,0,1-3.1-.932,7.766,7.766,0,0,1-2.736-3.132h13.623a1.877,1.877,0,0,0,1.54-.615,2.145,2.145,0,0,0,.609-1.5,9.616,9.616,0,0,0-.832-3.916M184,40.322a.24.24,0,0,1,.083-.169,7.881,7.881,0,0,1,2.37-2.71,5.8,5.8,0,0,1,6.771-.02,8.577,8.577,0,0,1,2.493,2.773v.083c0,.029.011.043.039.043Z" transform="translate(872.873 1957.756)" fill="#003a8f"/>
      <path id="Trazado_2632" data-name="Trazado 2632" d="M124.714,31.988a10.064,10.064,0,0,1,3.645,1.122,10.3,10.3,0,0,1,2.935,2.307,10.94,10.94,0,0,1,1.939,3.192,10.127,10.127,0,0,1,.712,3.774v8.325A1.993,1.993,0,0,1,133.3,52.2a2.052,2.052,0,0,1-1.466.625,5.6,5.6,0,0,1-.669-.044,1.868,1.868,0,0,1-.712-.237,2.215,2.215,0,0,1-.626-.539,1.648,1.648,0,0,1-.322-.949c-.144.057-.4.186-.777.388s-.647.345-.819.43a9.711,9.711,0,0,1-.991.388q-.52.174-1.079.345a11.768,11.768,0,0,1-2.328.217,9.98,9.98,0,0,1-5.783-1.748,10.787,10.787,0,0,1-3.8-4.507,10.232,10.232,0,0,1-.667-2.005,9.949,9.949,0,0,1-.237-2.179,9.663,9.663,0,0,1,.237-2.157,11.526,11.526,0,0,1,.667-2.027,10.6,10.6,0,0,1,3.8-4.529,10.07,10.07,0,0,1,5.783-1.725h.6a5.187,5.187,0,0,1,.6.042M123.463,48.6a6.168,6.168,0,0,0,2.395-.476,6.04,6.04,0,0,0,1.983-1.315,6.39,6.39,0,0,0,1.337-1.963,5.98,5.98,0,0,0,.5-2.459,5.819,5.819,0,0,0-.5-2.35,6.168,6.168,0,0,0-1.358-1.984,7.053,7.053,0,0,0-1.984-1.358,5.568,5.568,0,0,0-2.373-.519,5.646,5.646,0,0,0-2.35.5,6.588,6.588,0,0,0-1.962,1.358,6.5,6.5,0,0,0-1.36,1.985,5.824,5.824,0,0,0-.5,2.372,5.683,5.683,0,0,0,.518,2.416,6.339,6.339,0,0,0,1.4,1.963A7.033,7.033,0,0,0,121.2,48.1a5.45,5.45,0,0,0,2.265.5" transform="translate(892.876 1957.805)" fill="#003a8f"/>
      <path id="Trazado_2633" data-name="Trazado 2633" d="M281.956,31.988A10.079,10.079,0,0,1,285.6,33.11a10.317,10.317,0,0,1,2.931,2.307,10.9,10.9,0,0,1,1.941,3.192,10.168,10.168,0,0,1,.71,3.774v8.325a2,2,0,0,1-.646,1.488,2.051,2.051,0,0,1-1.465.625,5.68,5.68,0,0,1-.67-.044,1.864,1.864,0,0,1-.709-.237,2.185,2.185,0,0,1-.628-.539,1.643,1.643,0,0,1-.321-.949,8.692,8.692,0,0,0-.778.388c-.373.2-.645.345-.82.43a9.44,9.44,0,0,1-.99.388c-.344.116-.707.231-1.079.345a11.777,11.777,0,0,1-2.329.217,9.973,9.973,0,0,1-5.78-1.748,10.778,10.778,0,0,1-3.8-4.507,10.374,10.374,0,0,1-.669-2.005,9.948,9.948,0,0,1-.235-2.179,9.663,9.663,0,0,1,.235-2.157,11.706,11.706,0,0,1,.669-2.027,10.6,10.6,0,0,1,3.8-4.529,10.062,10.062,0,0,1,5.78-1.725h.6a5.188,5.188,0,0,1,.6.042M280.705,48.6a6.16,6.16,0,0,0,2.393-.476,6.029,6.029,0,0,0,1.984-1.315,6.4,6.4,0,0,0,1.339-1.963,6.025,6.025,0,0,0,.494-2.459,5.863,5.863,0,0,0-.494-2.35,6.144,6.144,0,0,0-1.361-1.984,7.05,7.05,0,0,0-1.983-1.358,5.74,5.74,0,0,0-4.72-.022,6.591,6.591,0,0,0-1.964,1.358,6.475,6.475,0,0,0-1.36,1.985,5.812,5.812,0,0,0-.5,2.372,5.693,5.693,0,0,0,.517,2.416,6.337,6.337,0,0,0,1.4,1.963,7.076,7.076,0,0,0,1.982,1.337,5.447,5.447,0,0,0,2.267.5" transform="translate(845.874 1957.805)" fill="#003a8f"/>
      <path id="Trazado_2634" data-name="Trazado 2634" d="M84.319,28.528A6.144,6.144,0,0,0,86.743,30.4a15.209,15.209,0,0,0-1.107,5.219c1.669-1.1,2.152-2.779,3.261-4.153,1.127.8,1.988,2.127,3.235,2.675.294-1.007-1.078-2.708-1.733-3.54.78-.776,2.414-1.129,3.11-1.947-.681-.792-2.191.092-3.439.442-.462-.281.469-1.014-.061-1.773-1.1.348-1.387,1.1-1.929,1.728-1.216-.07-2.761-.919-3.761-.523" transform="translate(901.457 1959.187)" fill="#5e93c3"/>
      <path id="Trazado_2635" data-name="Trazado 2635" d="M86.557,18.5A4.521,4.521,0,0,0,87.9,20.288a11.111,11.111,0,0,0-1.784,3.459c1.387-.449,2.051-1.541,3.1-2.295.639.778.99,1.88,1.763,2.506.4-.653-.24-2.114-.54-2.825.7-.4,1.917-.331,2.565-.773-.328-.689-1.562-.357-2.507-.349-.269-.288.524-.624.3-1.261-.843.032-1.189.508-1.69.845-.845-.283-1.767-1.179-2.55-1.092" transform="translate(900.918 1961.825)" fill="#003f94"/>
      <path id="Trazado_2636" data-name="Trazado 2636" d="M105.311,9.48s1.384,2.3-.607,3.791c0,0,3.569-.293,4.748,1.216,0,0-.552,1.807-4.718,1.071,0,0,.814,3.731-.031,5.119,0,0-2.225.055-2.409-5.349,0,0-3.925,4.44-7.081,4.842a14.986,14.986,0,0,1,4.766-6.44s-2.9-1.38-2.564-3.836a11.463,11.463,0,0,1,4.977,2.393s1.132-2.661,2.918-2.807" transform="translate(898.2 1964.52)" fill="#f1001e"/>
      <g id="Grupo_3534" data-name="Grupo 3534" transform="translate(1011.696 2013.975)">
        <path id="Trazado_2637" data-name="Trazado 2637" d="M121.907,72.731a1.66,1.66,0,0,0,.66.656,1.946,1.946,0,0,0,.923.215,1.842,1.842,0,0,0,.606-.1,1.533,1.533,0,0,0,.494-.273,1.28,1.28,0,0,0,.332-.425,1.263,1.263,0,0,0,.122-.562,1.081,1.081,0,0,0-.151-.6,1.223,1.223,0,0,0-.405-.386,3.048,3.048,0,0,0-.572-.259c-.211-.072-.43-.143-.654-.215s-.444-.153-.655-.244a2.2,2.2,0,0,1-.572-.357,1.59,1.59,0,0,1-.405-.552,1.965,1.965,0,0,1-.151-.821,1.783,1.783,0,0,1,.181-.816,1.745,1.745,0,0,1,.489-.6,2.174,2.174,0,0,1,.708-.361,2.872,2.872,0,0,1,.841-.122,2.723,2.723,0,0,1,1.05.2,2,2,0,0,1,.836.669l-.557.4a1.637,1.637,0,0,0-.571-.512,1.662,1.662,0,0,0-.777-.171,2.106,2.106,0,0,0-.6.083,1.472,1.472,0,0,0-.494.244,1.19,1.19,0,0,0-.337.406,1.23,1.23,0,0,0-.127.576,1.114,1.114,0,0,0,.264.8,1.858,1.858,0,0,0,.66.44,6.993,6.993,0,0,0,.86.283,4.159,4.159,0,0,1,.86.327,1.861,1.861,0,0,1,.66.571,1.706,1.706,0,0,1,.264,1.012,1.876,1.876,0,0,1-.175.83,1.838,1.838,0,0,1-.475.611,2.052,2.052,0,0,1-.688.376,2.606,2.606,0,0,1-.811.127,3.248,3.248,0,0,1-1.261-.24,2.3,2.3,0,0,1-.987-.806Z" transform="translate(-121.291 -66.624)" fill="#8a8984"/>
        <path id="Trazado_2638" data-name="Trazado 2638" d="M129.347,67.859a.433.433,0,1,1,.127.313.424.424,0,0,1-.127-.313m.147,1.788h.586v4.514h-.586Z" transform="translate(-123.699 -66.774)" fill="#8a8984"/>
        <path id="Trazado_2639" data-name="Trazado 2639" d="M136.641,74.211a1.981,1.981,0,0,1-.845.743,2.687,2.687,0,0,1-1.109.224,2.392,2.392,0,0,1-.938-.176,2.118,2.118,0,0,1-.724-.493,2.185,2.185,0,0,1-.464-.752,2.757,2.757,0,0,1-.161-.963,2.562,2.562,0,0,1,.167-.938,2.231,2.231,0,0,1,.469-.748,2.2,2.2,0,0,1,.714-.5,2.223,2.223,0,0,1,.909-.181,2.173,2.173,0,0,1,.913.181,2,2,0,0,1,.665.478,2.055,2.055,0,0,1,.405.679,2.269,2.269,0,0,1,.137.772v.41h-3.792a1.96,1.96,0,0,0,.074.474,1.674,1.674,0,0,0,.269.562,1.71,1.71,0,0,0,.523.469,1.63,1.63,0,0,0,.846.2,1.888,1.888,0,0,0,.869-.215,1.571,1.571,0,0,0,.645-.587Zm-.449-1.788a1.341,1.341,0,0,0-.122-.566,1.53,1.53,0,0,0-.332-.464,1.619,1.619,0,0,0-1.109-.435,1.5,1.5,0,0,0-.8.2,1.768,1.768,0,0,0-.766.943,1.276,1.276,0,0,0-.079.327Z" transform="translate(-124.611 -67.674)" fill="#8a8984"/>
        <path id="Trazado_2640" data-name="Trazado 2640" d="M140.491,71.817c0-.084,0-.186-.01-.307s-.012-.243-.015-.367-.008-.24-.015-.347-.01-.19-.01-.249h.587c.006.169.011.332.014.489a1.548,1.548,0,0,0,.024.3h.029a1.582,1.582,0,0,1,.587-.64,1.712,1.712,0,0,1,.958-.269,1.529,1.529,0,0,1,.82.229,1.3,1.3,0,0,1,.538.747,1.464,1.464,0,0,1,.641-.742,1.821,1.821,0,0,1,.894-.234,1.931,1.931,0,0,1,.86.165,1.387,1.387,0,0,1,.523.435,1.656,1.656,0,0,1,.264.621,3.565,3.565,0,0,1,.073.723v2.687h-.586V72.4a2.779,2.779,0,0,0-.05-.533,1.411,1.411,0,0,0-.17-.464.9.9,0,0,0-.342-.327,1.172,1.172,0,0,0-.571-.122,1.341,1.341,0,0,0-.674.151,1.19,1.19,0,0,0-.415.386,1.611,1.611,0,0,0-.215.509,2.3,2.3,0,0,0-.063.517v2.541h-.588V72.345a1.935,1.935,0,0,0-.229-1.006.77.77,0,0,0-.709-.381,1.652,1.652,0,0,0-.611.113,1.314,1.314,0,0,0-.5.341,1.674,1.674,0,0,0-.333.576,2.482,2.482,0,0,0-.121.816v2.258h-.586Z" transform="translate(-127.015 -67.674)" fill="#8a8984"/>
        <path id="Trazado_2641" data-name="Trazado 2641" d="M152.206,70.547h.585v.792h.02a1.543,1.543,0,0,1,.343-.406,2.037,2.037,0,0,1,.444-.283,2.317,2.317,0,0,1,.5-.166,2.6,2.6,0,0,1,.518-.053,2.509,2.509,0,0,1,.953.176,2.211,2.211,0,0,1,1.245,1.245,2.669,2.669,0,0,1,0,1.906A2.211,2.211,0,0,1,155.573,75a2.509,2.509,0,0,1-.953.176,2.6,2.6,0,0,1-.518-.053,2.278,2.278,0,0,1-.5-.166,2.039,2.039,0,0,1-.444-.284,1.529,1.529,0,0,1-.343-.405h-.02v3.02h-.585Zm.527,2.257a1.784,1.784,0,0,0,.147.719,1.87,1.87,0,0,0,.4.586,1.9,1.9,0,0,0,.6.4,1.853,1.853,0,0,0,.742.147,1.818,1.818,0,0,0,.744-.147,1.719,1.719,0,0,0,.566-.4,1.688,1.688,0,0,0,.355-.586,2.164,2.164,0,0,0,0-1.437,1.682,1.682,0,0,0-.355-.586,1.732,1.732,0,0,0-.566-.4,1.829,1.829,0,0,0-.744-.147,1.865,1.865,0,0,0-.742.147,1.912,1.912,0,0,0-.6.4,1.861,1.861,0,0,0-.4.586,1.783,1.783,0,0,0-.147.718" transform="translate(-130.532 -67.674)" fill="#8a8984"/>
        <path id="Trazado_2642" data-name="Trazado 2642" d="M160.882,71.817c0-.084,0-.186-.009-.307s-.012-.243-.015-.367-.008-.24-.014-.347-.011-.19-.011-.249h.587c.006.169.011.332.013.489a1.563,1.563,0,0,0,.025.3,2.005,2.005,0,0,1,.576-.655,1.429,1.429,0,0,1,.86-.254.985.985,0,0,1,.172.014c.055.01.112.021.171.034l-.069.576a.712.712,0,0,0-.224-.039,1.638,1.638,0,0,0-.66.122,1.258,1.258,0,0,0-.459.337,1.386,1.386,0,0,0-.268.5,2.105,2.105,0,0,0-.089.62v2.463h-.585Z" transform="translate(-133.11 -67.674)" fill="#8a8984"/>
        <path id="Trazado_2643" data-name="Trazado 2643" d="M169.171,74.211a1.975,1.975,0,0,1-.846.743,2.681,2.681,0,0,1-1.108.224,2.4,2.4,0,0,1-.939-.176,2.113,2.113,0,0,1-.723-.493,2.174,2.174,0,0,1-.464-.752,2.757,2.757,0,0,1-.161-.963,2.576,2.576,0,0,1,.165-.938,2.24,2.24,0,0,1,.469-.748,2.208,2.208,0,0,1,.713-.5,2.234,2.234,0,0,1,.91-.181,2.174,2.174,0,0,1,.913.181,1.993,1.993,0,0,1,.665.478,2.02,2.02,0,0,1,.405.679,2.253,2.253,0,0,1,.137.772v.41h-3.792a2.02,2.02,0,0,0,.073.474,1.65,1.65,0,0,0,.269.562,1.691,1.691,0,0,0,.522.469,1.63,1.63,0,0,0,.846.2,1.888,1.888,0,0,0,.869-.215,1.571,1.571,0,0,0,.645-.587Zm-.449-1.788a1.331,1.331,0,0,0-.123-.566,1.506,1.506,0,0,0-.332-.464,1.563,1.563,0,0,0-.5-.318,1.583,1.583,0,0,0-.61-.118,1.492,1.492,0,0,0-.8.2,1.727,1.727,0,0,0-.5.449,1.776,1.776,0,0,0-.264.494,1.318,1.318,0,0,0-.078.327Z" transform="translate(-134.335 -67.674)" fill="#8a8984"/>
        <path id="Trazado_2644" data-name="Trazado 2644" d="M180.088,73.166q0,.332,0,.6c0,.176.008.339.014.488s.015.29.025.42.025.262.044.391h-.547a4.2,4.2,0,0,1-.059-.733h-.02a1.649,1.649,0,0,1-.63.646,1.985,1.985,0,0,1-.953.2,2.288,2.288,0,0,1-.577-.073,1.509,1.509,0,0,1-.508-.234,1.259,1.259,0,0,1-.367-.416,1.243,1.243,0,0,1-.142-.616,1.211,1.211,0,0,1,.264-.821,1.642,1.642,0,0,1,.651-.454,3.084,3.084,0,0,1,.82-.2,7.677,7.677,0,0,1,.767-.043h.684v-.274a.955.955,0,0,0-.362-.841,1.544,1.544,0,0,0-.909-.254,2.062,2.062,0,0,0-1.378.508l-.342-.4a2.1,2.1,0,0,1,.8-.474,2.872,2.872,0,0,1,.918-.161,2.059,2.059,0,0,1,1.31.385,1.5,1.5,0,0,1,.489,1.247Zm-1.173-.371a5.188,5.188,0,0,0-.718.048,2.555,2.555,0,0,0-.626.166,1.164,1.164,0,0,0-.444.313.786.786,0,0,0-.073.855.8.8,0,0,0,.24.264,1.092,1.092,0,0,0,.327.156,1.282,1.282,0,0,0,.367.054,1.884,1.884,0,0,0,.772-.137,1.325,1.325,0,0,0,.484-.357,1.239,1.239,0,0,0,.249-.5,2.312,2.312,0,0,0,.069-.562v-.3Z" transform="translate(-137.756 -67.674)" fill="#8a8984"/>
        <rect id="Rect치ngulo_335" data-name="Rect치ngulo 335" width="0.586" height="7.387" transform="translate(43.993)" fill="#8a8984"/>
        <rect id="Rect치ngulo_336" data-name="Rect치ngulo 336" width="0.586" height="7.387" transform="translate(46.348)" fill="#8a8984"/>
        <path id="Trazado_2645" data-name="Trazado 2645" d="M191.383,67.168h.782l-1.31,1.407h-.489Zm-.742,2.4h.586v4.514h-.586Z" transform="translate(-141.938 -66.699)" fill="#8a8984"/>
        <path id="Trazado_2646" data-name="Trazado 2646" d="M194.19,75.781h.684l-.752,2.229h-.576Z" transform="translate(-142.888 -69.274)" fill="#8a8984"/>
        <path id="Trazado_2647" data-name="Trazado 2647" d="M201,73.909a1.26,1.26,0,0,0,.547.552,1.614,1.614,0,0,0,.763.191,1.215,1.215,0,0,0,.37-.059,1.132,1.132,0,0,0,.333-.166.9.9,0,0,0,.239-.259.653.653,0,0,0,.093-.347.557.557,0,0,0-.2-.469,1.486,1.486,0,0,0-.494-.245,6.052,6.052,0,0,0-.645-.151,2.772,2.772,0,0,1-.645-.195,1.394,1.394,0,0,1-.494-.367,1,1,0,0,1-.2-.665,1.155,1.155,0,0,1,.137-.576,1.242,1.242,0,0,1,.357-.405,1.527,1.527,0,0,1,.493-.24,2.034,2.034,0,0,1,.557-.078,2.112,2.112,0,0,1,.963.2,1.426,1.426,0,0,1,.63.645l-.527.313a1.24,1.24,0,0,0-.416-.473,1.284,1.284,0,0,0-.977-.113,1.127,1.127,0,0,0-.308.137.788.788,0,0,0-.229.225.537.537,0,0,0-.093.313.519.519,0,0,0,.2.449,1.541,1.541,0,0,0,.494.231,6.128,6.128,0,0,0,.644.142,2.575,2.575,0,0,1,.646.19,1.32,1.32,0,0,1,.493.381,1.108,1.108,0,0,1,.2.709,1.323,1.323,0,0,1-.132.611,1.248,1.248,0,0,1-.362.435,1.617,1.617,0,0,1-.522.264,2.15,2.15,0,0,1-.616.088,2.5,2.5,0,0,1-1.07-.224,1.627,1.627,0,0,1-.747-.693Z" transform="translate(-144.963 -67.674)" fill="#8a8984"/>
        <path id="Trazado_2648" data-name="Trazado 2648" d="M207.078,67.859a.435.435,0,0,1,.44-.44.42.42,0,0,1,.312.127.442.442,0,1,1-.752.313m.147,1.788h.586v4.514h-.586Z" transform="translate(-146.934 -66.774)" fill="#8a8984"/>
        <path id="Trazado_2649" data-name="Trazado 2649" d="M214.372,74.211a1.983,1.983,0,0,1-.846.743,2.685,2.685,0,0,1-1.108.224,2.4,2.4,0,0,1-.939-.176,2.109,2.109,0,0,1-.724-.493,2.185,2.185,0,0,1-.464-.752,2.757,2.757,0,0,1-.161-.963,2.575,2.575,0,0,1,.165-.938,2.242,2.242,0,0,1,.469-.748,2.2,2.2,0,0,1,.714-.5,2.23,2.23,0,0,1,.91-.181,2.172,2.172,0,0,1,.912.181,2,2,0,0,1,.665.478,2.044,2.044,0,0,1,.405.679,2.269,2.269,0,0,1,.137.772v.41h-3.791a2.018,2.018,0,0,0,.073.474,1.676,1.676,0,0,0,.269.562,1.707,1.707,0,0,0,.522.469,1.632,1.632,0,0,0,.845.2,1.888,1.888,0,0,0,.869-.215,1.571,1.571,0,0,0,.645-.587Zm-.449-1.788a1.33,1.33,0,0,0-.123-.566,1.516,1.516,0,0,0-.332-.464,1.62,1.62,0,0,0-1.109-.435,1.493,1.493,0,0,0-.8.2,1.726,1.726,0,0,0-.5.449,1.774,1.774,0,0,0-.264.494,1.316,1.316,0,0,0-.078.327Z" transform="translate(-147.846 -67.674)" fill="#8a8984"/>
        <path id="Trazado_2650" data-name="Trazado 2650" d="M218.222,71.817c0-.084,0-.186-.01-.307s-.011-.243-.015-.367-.008-.24-.015-.347-.01-.19-.01-.249h.587c.006.169.011.332.014.489a1.588,1.588,0,0,0,.025.3h.029a1.58,1.58,0,0,1,.586-.64,1.714,1.714,0,0,1,.958-.269,1.532,1.532,0,0,1,.82.229,1.306,1.306,0,0,1,.538.747,1.463,1.463,0,0,1,.64-.742,1.821,1.821,0,0,1,.894-.234,1.939,1.939,0,0,1,.86.165,1.384,1.384,0,0,1,.522.435,1.622,1.622,0,0,1,.264.621,3.517,3.517,0,0,1,.075.723v2.687H224.4V72.4a2.9,2.9,0,0,0-.049-.533,1.427,1.427,0,0,0-.171-.464.894.894,0,0,0-.342-.327,1.172,1.172,0,0,0-.571-.122,1.34,1.34,0,0,0-.674.151,1.192,1.192,0,0,0-.416.386,1.594,1.594,0,0,0-.215.509,2.347,2.347,0,0,0-.064.517v2.541h-.586V72.345a1.935,1.935,0,0,0-.229-1.006.768.768,0,0,0-.708-.381,1.652,1.652,0,0,0-.611.113,1.311,1.311,0,0,0-.5.341,1.649,1.649,0,0,0-.332.576,2.48,2.48,0,0,0-.123.816v2.258h-.586Z" transform="translate(-150.25 -67.674)" fill="#8a8984"/>
        <path id="Trazado_2651" data-name="Trazado 2651" d="M229.936,70.547h.587v.792h.02a1.528,1.528,0,0,1,.342-.406,2.041,2.041,0,0,1,.444-.283,2.28,2.28,0,0,1,.5-.166,2.6,2.6,0,0,1,.518-.053,2.5,2.5,0,0,1,.952.176,2.213,2.213,0,0,1,1.247,1.245,2.669,2.669,0,0,1,0,1.906A2.213,2.213,0,0,1,233.3,75a2.5,2.5,0,0,1-.952.176,2.6,2.6,0,0,1-.518-.053,2.242,2.242,0,0,1-.5-.166,2.044,2.044,0,0,1-.444-.284,1.514,1.514,0,0,1-.342-.405h-.02v3.02h-.587Zm.528,2.257a1.785,1.785,0,0,0,.147.719,1.847,1.847,0,0,0,.4.586,1.911,1.911,0,0,0,.6.4,1.858,1.858,0,0,0,.743.147,1.81,1.81,0,0,0,.742-.147,1.7,1.7,0,0,0,.567-.4,1.67,1.67,0,0,0,.357-.586,2.163,2.163,0,0,0,0-1.437,1.664,1.664,0,0,0-.357-.586,1.713,1.713,0,0,0-.567-.4,1.821,1.821,0,0,0-.742-.147,1.869,1.869,0,0,0-.743.147,1.925,1.925,0,0,0-.6.4,1.839,1.839,0,0,0-.4.586,1.784,1.784,0,0,0-.147.718" transform="translate(-153.766 -67.674)" fill="#8a8984"/>
        <path id="Trazado_2652" data-name="Trazado 2652" d="M238.614,71.817c0-.084,0-.186-.01-.307s-.012-.243-.015-.367-.008-.24-.015-.347-.011-.19-.011-.249h.587q.009.253.015.489a1.529,1.529,0,0,0,.025.3,2,2,0,0,1,.576-.655,1.428,1.428,0,0,1,.86-.254.977.977,0,0,1,.171.014c.055.01.112.021.171.034l-.069.576a.713.713,0,0,0-.225-.039,1.631,1.631,0,0,0-.659.122,1.251,1.251,0,0,0-.46.337,1.405,1.405,0,0,0-.268.5,2.1,2.1,0,0,0-.088.62v2.463h-.586Z" transform="translate(-156.345 -67.674)" fill="#8a8984"/>
        <path id="Trazado_2653" data-name="Trazado 2653" d="M246.9,74.211a1.979,1.979,0,0,1-.846.743,2.685,2.685,0,0,1-1.108.224,2.4,2.4,0,0,1-.939-.176,2.106,2.106,0,0,1-.723-.493,2.174,2.174,0,0,1-.464-.752,2.74,2.74,0,0,1-.161-.963,2.576,2.576,0,0,1,.165-.938,2.252,2.252,0,0,1,.469-.748,2.2,2.2,0,0,1,.714-.5,2.231,2.231,0,0,1,.909-.181,2.171,2.171,0,0,1,.913.181,1.986,1.986,0,0,1,.665.478,2.023,2.023,0,0,1,.406.679,2.252,2.252,0,0,1,.137.772v.41h-3.791a2.02,2.02,0,0,0,.073.474,1.677,1.677,0,0,0,.269.562,1.708,1.708,0,0,0,.522.469,1.632,1.632,0,0,0,.846.2,1.893,1.893,0,0,0,.87-.215,1.575,1.575,0,0,0,.645-.587Zm-.449-1.788a1.32,1.32,0,0,0-.123-.566,1.516,1.516,0,0,0-.332-.464,1.571,1.571,0,0,0-.5-.318,1.589,1.589,0,0,0-.611-.118,1.5,1.5,0,0,0-.8.2,1.727,1.727,0,0,0-.5.449,1.8,1.8,0,0,0-.264.494,1.317,1.317,0,0,0-.078.327Z" transform="translate(-157.57 -67.674)" fill="#8a8984"/>
        <path id="Trazado_2654" data-name="Trazado 2654" d="M258.071,74.4a2.108,2.108,0,0,1-.752.592,2.175,2.175,0,0,1-.909.19,2.546,2.546,0,0,1-.958-.176,2.178,2.178,0,0,1-.753-.493,2.285,2.285,0,0,1-.488-.752,2.669,2.669,0,0,1,0-1.906,2.277,2.277,0,0,1,.488-.752,2.178,2.178,0,0,1,.753-.493,2.546,2.546,0,0,1,.958-.176,2.1,2.1,0,0,1,.923.2,2.439,2.439,0,0,1,.757.576l-.469.352a2.025,2.025,0,0,0-.557-.444,1.372,1.372,0,0,0-.654-.161,1.828,1.828,0,0,0-.743.147,1.725,1.725,0,0,0-.567.4,1.675,1.675,0,0,0-.357.586,2.176,2.176,0,0,0,0,1.437,1.682,1.682,0,0,0,.357.586,1.713,1.713,0,0,0,.567.4,1.817,1.817,0,0,0,.743.147,1.383,1.383,0,0,0,.679-.171,1.782,1.782,0,0,0,.532-.454Z" transform="translate(-160.97 -67.674)" fill="#8a8984"/>
        <path id="Trazado_2655" data-name="Trazado 2655" d="M260.74,72.8a2.51,2.51,0,0,1,.176-.953,2.289,2.289,0,0,1,.488-.752,2.178,2.178,0,0,1,.753-.493,2.548,2.548,0,0,1,.958-.176,2.51,2.51,0,0,1,.953.176,2.207,2.207,0,0,1,1.247,1.245,2.679,2.679,0,0,1,0,1.906A2.207,2.207,0,0,1,264.067,75a2.51,2.51,0,0,1-.953.176,2.548,2.548,0,0,1-.958-.176,2.178,2.178,0,0,1-.753-.493,2.3,2.3,0,0,1-.488-.752,2.511,2.511,0,0,1-.176-.953m.586,0a2.094,2.094,0,0,0,.122.719,1.682,1.682,0,0,0,.357.586,1.713,1.713,0,0,0,.567.4,1.947,1.947,0,0,0,1.486,0,1.716,1.716,0,0,0,.567-.4,1.68,1.68,0,0,0,.356-.586,2.165,2.165,0,0,0,0-1.437,1.673,1.673,0,0,0-.356-.586,1.728,1.728,0,0,0-.567-.4,1.956,1.956,0,0,0-1.486,0,1.725,1.725,0,0,0-.567.4,1.676,1.676,0,0,0-.357.586,2.093,2.093,0,0,0-.122.718" transform="translate(-162.974 -67.674)" fill="#8a8984"/>
        <path id="Trazado_2656" data-name="Trazado 2656" d="M269.361,71.817c0-.084,0-.186-.01-.307s-.011-.243-.015-.367-.008-.24-.015-.347-.011-.19-.011-.249h.587q.01.253.015.489a1.526,1.526,0,0,0,.025.3h.029a1.575,1.575,0,0,1,.586-.64,1.713,1.713,0,0,1,.958-.269,1.939,1.939,0,0,1,.86.165,1.39,1.39,0,0,1,.522.435,1.634,1.634,0,0,1,.264.621,3.564,3.564,0,0,1,.073.723v2.687h-.587V72.4a2.836,2.836,0,0,0-.048-.533,1.428,1.428,0,0,0-.171-.464.9.9,0,0,0-.341-.327,1.176,1.176,0,0,0-.572-.122,1.652,1.652,0,0,0-.611.113,1.305,1.305,0,0,0-.5.341,1.648,1.648,0,0,0-.332.576,2.443,2.443,0,0,0-.123.816v2.258h-.586Z" transform="translate(-165.536 -67.674)" fill="#8a8984"/>
        <path id="Trazado_2657" data-name="Trazado 2657" d="M279.065,70.571h-1.29v2.941a.634.634,0,0,0,.166.469.622.622,0,0,0,.46.166,1.337,1.337,0,0,0,.337-.044,2.142,2.142,0,0,0,.327-.112l.05.527a3.617,3.617,0,0,1-.381.108,1.766,1.766,0,0,1-.381.048,1.406,1.406,0,0,1-.537-.093.972.972,0,0,1-.362-.249.993.993,0,0,1-.2-.367,1.542,1.542,0,0,1-.064-.454V70.571h-.977v-.528h.977v-1.3h.586v1.3h1.29Z" transform="translate(-167.598 -67.17)" fill="#8a8984"/>
        <path id="Trazado_2658" data-name="Trazado 2658" d="M281.717,67.859a.433.433,0,0,1,.44-.44.42.42,0,0,1,.312.127.442.442,0,1,1-.752.313m.147,1.788h.586v4.514h-.586Z" transform="translate(-169.244 -66.774)" fill="#8a8984"/>
        <path id="Trazado_2659" data-name="Trazado 2659" d="M289.582,74.768a3.226,3.226,0,0,1-.244,1.359,2.144,2.144,0,0,1-.611.8,2.022,2.022,0,0,1-.786.381,3.4,3.4,0,0,1-.763.1,3.517,3.517,0,0,1-.669-.063,3.223,3.223,0,0,1-.621-.186,2.611,2.611,0,0,1-.533-.3,2.088,2.088,0,0,1-.415-.4l.46-.43a1.867,1.867,0,0,0,.781.645,2.461,2.461,0,0,0,1,.2,2.127,2.127,0,0,0,.757-.117,1.512,1.512,0,0,0,.509-.308,1.481,1.481,0,0,0,.312-.42,2.168,2.168,0,0,0,.166-.459,2.465,2.465,0,0,0,.064-.435c.006-.137.01-.247.01-.332v-.626h-.02a1.793,1.793,0,0,1-.688.645,2.111,2.111,0,0,1-1.021.235,2.438,2.438,0,0,1-.938-.181,2.385,2.385,0,0,1-1.285-1.236,2.207,2.207,0,0,1,0-1.8,2.338,2.338,0,0,1,.517-.733,2.514,2.514,0,0,1,.768-.5,2.39,2.39,0,0,1,.938-.185,2.119,2.119,0,0,1,1.021.234,1.8,1.8,0,0,1,.688.645H289v-.762h.586Zm-.566-2.023a1.752,1.752,0,0,0-.142-.7,1.828,1.828,0,0,0-.381-.566,1.806,1.806,0,0,0-.567-.381,1.794,1.794,0,0,0-1.4,0,1.777,1.777,0,0,0-.947.948,1.786,1.786,0,0,0,0,1.4,1.771,1.771,0,0,0,.947.948,1.794,1.794,0,0,0,1.4,0,1.8,1.8,0,0,0,.567-.381,1.831,1.831,0,0,0,.381-.567,1.748,1.748,0,0,0,.142-.7" transform="translate(-170.181 -67.674)" fill="#8a8984"/>
        <path id="Trazado_2660" data-name="Trazado 2660" d="M293.285,72.8a2.51,2.51,0,0,1,.176-.953,2.278,2.278,0,0,1,.488-.752,2.178,2.178,0,0,1,.753-.493,2.546,2.546,0,0,1,.958-.176,2.51,2.51,0,0,1,.953.176,2.209,2.209,0,0,1,1.246,1.245,2.68,2.68,0,0,1,0,1.906A2.209,2.209,0,0,1,296.612,75a2.51,2.51,0,0,1-.953.176A2.546,2.546,0,0,1,294.7,75a2.178,2.178,0,0,1-.753-.493,2.285,2.285,0,0,1-.488-.752,2.511,2.511,0,0,1-.176-.953m.586,0a2.093,2.093,0,0,0,.122.719,1.682,1.682,0,0,0,.357.586,1.712,1.712,0,0,0,.567.4,1.947,1.947,0,0,0,1.486,0,1.716,1.716,0,0,0,.567-.4,1.679,1.679,0,0,0,.356-.586,2.164,2.164,0,0,0,0-1.437,1.672,1.672,0,0,0-.356-.586,1.728,1.728,0,0,0-.567-.4,1.956,1.956,0,0,0-1.486,0,1.724,1.724,0,0,0-.567.4,1.676,1.676,0,0,0-.357.586,2.092,2.092,0,0,0-.122.718" transform="translate(-172.702 -67.674)" fill="#8a8984"/>
      </g>
    </g>
  </g>
</svg>
