<svg xmlns="http://www.w3.org/2000/svg" width="1001.25" height="27.268" viewBox="0 0 1001.25 27.268">
  <g id="Grupo_6603" data-name="Grupo 6603" transform="translate(-184 -907.732)">
    <line id="Línea_36" data-name="Línea 36" x2="507" transform="translate(210.5 921.5)" fill="none" stroke="#1f96ab" stroke-linecap="round" stroke-width="3.5" opacity="0.247"/>
    <line id="Línea_37" data-name="Línea 37" x2="438" transform="translate(745.5 921.5)" fill="none" stroke="#1f96ab" stroke-linecap="round" stroke-width="3.5" opacity="0.247"/>
    <g id="Grupo_6601" data-name="Grupo 6601">
      <ellipse id="Elipse_20" data-name="Elipse 20" cx="12" cy="11.5" rx="12" ry="11.5" transform="translate(186 910)" fill="#fff"/>
      <path id="Icon_awesome-check-circle" data-name="Icon awesome-check-circle" d="M27.83,14.2A13.634,13.634,0,1,1,14.2.563,13.634,13.634,0,0,1,27.83,14.2ZM12.619,21.415,22.735,11.3a.88.88,0,0,0,0-1.244L21.491,8.812a.88.88,0,0,0-1.244,0L12,17.061,8.146,13.21a.88.88,0,0,0-1.244,0L5.658,14.454a.88.88,0,0,0,0,1.244l5.717,5.717a.88.88,0,0,0,1.244,0Z" transform="translate(183.438 907.17)" fill="#1f96ab"/>
    </g>
    <g id="Grupo_6602" data-name="Grupo 6602" transform="translate(533)">
      <ellipse id="Elipse_20-2" data-name="Elipse 20" cx="12" cy="11.5" rx="12" ry="11.5" transform="translate(186 910)" fill="#fff"/>
      <path id="Icon_awesome-check-circle-2" data-name="Icon awesome-check-circle" d="M27.83,14.2A13.634,13.634,0,1,1,14.2.563,13.634,13.634,0,0,1,27.83,14.2ZM12.619,21.415,22.735,11.3a.88.88,0,0,0,0-1.244L21.491,8.812a.88.88,0,0,0-1.244,0L12,17.061,8.146,13.21a.88.88,0,0,0-1.244,0L5.658,14.454a.88.88,0,0,0,0,1.244l5.717,5.717a.88.88,0,0,0,1.244,0Z" transform="translate(183.438 907.17)" fill="#1f96ab"/>
    </g>
  </g>
</svg>
