<svg id="icono1" xmlns="http://www.w3.org/2000/svg" width="124" height="124" viewBox="0 0 124 124">
  <g id="Grupo_3565" data-name="Grupo 3565">
    <g id="Elipse_2" data-name="Elipse 2" fill="#fff" stroke="#d4e5e8" stroke-width="10">
      <circle cx="62" cy="62" r="62" stroke="none"/>
      <circle cx="62" cy="62" r="57" fill="none"/>
    </g>
    <path id="Icon_awesome-box-open" data-name="Icon awesome-box-open" d="M33.17,19.7a3.777,3.777,0,0,1-3.226-1.823l-5.01-8.306-5,8.306A3.79,3.79,0,0,1,16.7,19.711a3.584,3.584,0,0,1-1.036-.148L4.987,16.509V30.378a2.485,2.485,0,0,0,1.886,2.415l16.846,4.215a5.065,5.065,0,0,0,2.415,0l16.861-4.215a2.5,2.5,0,0,0,1.886-2.415V16.509L34.206,19.556A3.584,3.584,0,0,1,33.17,19.7Zm16.565-8.742-4.013-8.01a1.273,1.273,0,0,0-1.3-.693L24.934,4.744l7.145,11.851a1.281,1.281,0,0,0,1.441.569l15.42-4.4a1.283,1.283,0,0,0,.795-1.8ZM4.145,2.952.133,10.961A1.27,1.27,0,0,0,.92,12.753l15.42,4.4a1.281,1.281,0,0,0,1.441-.569L24.934,4.744,5.439,2.258A1.273,1.273,0,0,0,4.145,2.952Z" transform="translate(39.003 43.753)" fill="#1f96ab"/>
  </g>
  <g id="Grupo_3570" data-name="Grupo 3570" transform="translate(90 14)">
    <circle id="Elipse_16" data-name="Elipse 16" cx="17" cy="17" r="17" fill="#ed5f2b"/>
    <path id="Icon_material-close" data-name="Icon material-close" d="M20.707,8.83,19.377,7.5,14.1,12.774,8.83,7.5,7.5,8.83,12.774,14.1,7.5,19.377l1.33,1.33L14.1,15.434l5.274,5.274,1.33-1.33L15.434,14.1Z" transform="translate(2.677 2.677)" fill="#fff" stroke="#fff" stroke-linecap="round" stroke-width="1"/>
  </g>
</svg>
