<svg xmlns="http://www.w3.org/2000/svg" width="60" height="60" viewBox="0 0 60 60">
  <g id="icono-tiempo-entrega" transform="translate(-155 -751)">
    <g id="Grupo_3577" data-name="Grupo 3577">
      <g id="Elipse_17" data-name="Elipse 17" transform="translate(155 751)" fill="#fff" stroke="#d4e5e8" stroke-width="5">
        <circle cx="30" cy="30" r="30" stroke="none"/>
        <circle cx="30" cy="30" r="27.5" fill="none"/>
      </g>
      <circle id="Elipse_18" data-name="Elipse 18" cx="8" cy="8" r="8" transform="translate(199 751)" fill="#1f96ab"/>
      <path id="Icon_awesome-check" data-name="Icon awesome-check" d="M3.188,11.439.137,8.388a.469.469,0,0,1,0-.664L.8,7.061a.469.469,0,0,1,.664,0L3.52,9.116l4.4-4.4a.469.469,0,0,1,.664,0l.664.664a.469.469,0,0,1,0,.664l-5.4,5.4A.469.469,0,0,1,3.188,11.439Z" transform="translate(202.01 750.858)" fill="#fff"/>
      <path id="Icon_material-date-range" data-name="Icon material-date-range" d="M12.038,14.307H9.525V16.82h2.513Zm5.025,0H14.551V16.82h2.513Zm5.025,0H19.576V16.82h2.513ZM24.6,5.513H23.345V3H20.833V5.513H10.782V3H8.269V5.513H7.013a2.5,2.5,0,0,0-2.5,2.513L4.5,25.615a2.512,2.512,0,0,0,2.513,2.513H24.6a2.52,2.52,0,0,0,2.513-2.513V8.025A2.52,2.52,0,0,0,24.6,5.513Zm0,20.1H7.013V11.795H24.6Z" transform="translate(169.5 765)" fill="#5db0be"/>
    </g>
  </g>
</svg>
